<svg width="28" height="28" viewBox="0 0 28 28" fill="none" xmlns="http://www.w3.org/2000/svg">
  <path d="M16.5 4.5c-3.8 0-6.8 3-6.8 7.2 0 3 1.4 5.2 3.4 7 .9.8 1.8 1.7 2.1 2.8.2.7.3 1.4.2 2.1" stroke="#009C43" stroke-width="1.6" stroke-linecap="round"/>
  <circle cx="9" cy="12" r="2.2" stroke="#009C43" stroke-width="1.4"/>
  <path d="M8.2 14.2v3.2M7 15.8h2.4" stroke="#009C43" stroke-width="1.3" stroke-linecap="round"/>
  <path d="M20.5 8.5c1.4 1.2 2.2 2.9 2.2 4.8s-.8 3.6-2.2 4.8" stroke="#009C43" stroke-width="1.5" stroke-linecap="round"/>
  <path d="M22.8 6.8c2 1.7 3.2 4.1 3.2 6.8s-1.2 5.1-3.2 6.8" stroke="#009C43" stroke-width="1.5" stroke-linecap="round"/>
</svg>
