<svg width="42" height="42" viewBox="0 0 42 42" fill="none" xmlns="http://www.w3.org/2000/svg">
<rect width="42" height="42" rx="10" fill="#E5F5EC"/>
<g clip-path="url(#clip0_3030_28936)">
<path d="M16.3047 28.5742C16.3047 30.3779 17.7721 31.8453 19.5758 31.8453C21.3794 31.8453 22.8468 30.3779 22.8468 28.5742C22.8468 28.242 22.5775 27.9727 22.2453 27.9727C21.9131 27.9727 21.6437 28.242 21.6437 28.5742C21.6437 29.7145 20.716 30.6422 19.5758 30.6422C18.4355 30.6422 17.5078 29.7145 17.5078 28.5742C17.5078 28.242 17.2385 27.9727 16.9062 27.9727C16.574 27.9727 16.3047 28.242 16.3047 28.5742Z" fill="#009C43"/>
<path d="M26.9967 19.7592C27.0049 19.7592 27.0131 19.7591 27.0212 19.7587C27.3532 19.7454 27.6115 19.4655 27.5982 19.1335C27.5401 17.6841 26.9295 16.3269 25.8791 15.3119C24.8292 14.2974 23.452 13.733 22.0011 13.7228C21.9877 13.7227 21.9745 13.7227 21.9611 13.7227C19.4183 13.7227 17.1825 15.4281 16.5156 17.8822L17.6766 18.1978C18.2013 16.2673 19.9602 14.9258 21.9611 14.9258C21.9715 14.9258 21.9822 14.9259 21.9927 14.9259C23.1331 14.934 24.2164 15.3783 25.0431 16.1771C25.8699 16.976 26.3504 18.0431 26.396 19.1818C26.409 19.5055 26.6756 19.7592 26.9967 19.7592Z" fill="#009C43"/>
<path d="M30.549 18.9001C30.4603 16.6894 29.5307 14.6208 27.9312 13.0753C26.333 11.5311 24.2349 10.6721 22.0231 10.6565L21.9609 10.6562C19.6771 10.6562 17.5269 11.5426 15.9061 13.152C15.0065 14.0452 14.3305 15.0939 13.8968 16.269L15.0255 16.6856C15.3981 15.6761 15.9796 14.7745 16.7538 14.0057C18.1477 12.6216 19.997 11.8593 21.9609 11.8593L22.0147 11.8595C23.916 11.8729 25.7203 12.6119 27.0952 13.9405C28.471 15.2699 29.2706 17.0483 29.3468 18.9482C29.3989 20.2484 29.1091 21.5399 28.5088 22.6831C27.9298 23.7858 27.0736 24.7322 26.033 25.42C25.5813 25.7184 25.2288 26.1021 25.0136 26.5295C24.6496 27.2523 24.465 28.0329 24.465 28.8495C24.465 31.5775 22.2456 33.7968 19.5177 33.7968C16.7897 33.7968 14.5703 31.5774 14.5703 28.8495V27.1603H13.3672V28.8495C13.3672 32.2409 16.1263 35 19.5177 35C22.9091 35 25.6682 32.2409 25.6682 28.8495C25.6682 28.2225 25.8095 27.624 26.0882 27.0706C26.2091 26.8304 26.4195 26.6067 26.6964 26.4237C27.9058 25.6243 28.9009 24.5242 29.574 23.2424C30.2724 21.9125 30.6095 20.4109 30.549 18.9001Z" fill="#009C43"/>
<path d="M23.0217 25.287C22.7802 25.5151 22.7693 25.8959 22.9974 26.1374C23.1157 26.2628 23.2751 26.326 23.4349 26.326C23.5831 26.326 23.7316 26.2716 23.8478 26.1618C24.7847 25.2771 25.3083 24.0307 25.2844 22.7424C25.2623 21.5475 24.7786 20.4227 23.9225 19.5751C23.0666 18.7276 21.937 18.255 20.742 18.2444C19.6681 18.2338 18.6182 18.6053 17.7891 19.2876L18.5536 20.2166C19.1649 19.7135 19.9382 19.4405 20.7313 19.4474C22.545 19.4636 24.0478 20.9517 24.0815 22.7646C24.0991 23.715 23.7128 24.6344 23.0217 25.287Z" fill="#009C43"/>
<path d="M28.0938 9.89844C27.7615 9.89844 27.4922 10.1678 27.4922 10.5C27.4922 10.8322 27.7615 11.1016 28.0938 11.1016C29.6378 11.1016 30.894 12.3578 30.894 13.9019C30.894 14.2341 31.1634 14.5035 31.4956 14.5035C31.8278 14.5035 32.0971 14.2341 32.0971 13.9019C32.0971 11.6944 30.3012 9.89844 28.0938 9.89844Z" fill="#009C43"/>
<path d="M28.1016 7C27.7693 7 27.5 7.26934 27.5 7.60156C27.5 7.93379 27.7693 8.20312 28.1016 8.20312C31.244 8.20312 33.8006 10.7597 33.8006 13.9022C33.8006 14.2344 34.0699 14.5037 34.4022 14.5037C34.7344 14.5037 35.0037 14.2344 35.0037 13.9022C35.0037 10.0963 31.9074 7 28.1016 7Z" fill="#009C43"/>
<path d="M13.0703 15.6953C9.72311 15.6953 7 18.4184 7 21.7656C7 25.1128 9.72311 27.8359 13.0703 27.8359C16.4175 27.8359 19.1406 25.1128 19.1406 21.7656C19.1406 18.4184 16.4175 15.6953 13.0703 15.6953ZM13.0703 26.6328C10.3865 26.6328 8.20312 24.4494 8.20312 21.7656C8.20312 19.0818 10.3865 16.8984 13.0703 16.8984C15.7541 16.8984 17.9375 19.0818 17.9375 21.7656C17.9375 24.4494 15.7541 26.6328 13.0703 26.6328Z" fill="#009C43"/>
<path d="M15.0424 19.7934C14.8074 19.5585 14.4266 19.5585 14.1916 19.7934L13.0703 20.9148L11.9489 19.7934C11.7139 19.5585 11.3331 19.5585 11.0981 19.7934C10.8631 20.0283 10.8631 20.4092 11.0981 20.6442L12.2195 21.7656L11.0981 22.887C10.8631 23.1219 10.8631 23.5028 11.0981 23.7378C11.2155 23.8553 11.3695 23.914 11.5234 23.914C11.6774 23.914 11.8313 23.8553 11.9488 23.7378L13.0703 22.6163L14.1917 23.7377C14.3092 23.8552 14.4631 23.9139 14.6171 23.9139C14.771 23.9139 14.9249 23.8552 15.0424 23.7377C15.2774 23.5028 15.2774 23.1219 15.0424 22.887L13.921 21.7655L15.0424 20.6441C15.2774 20.4092 15.2774 20.0283 15.0424 19.7934Z" fill="#009C43"/>
</g>
<defs>
<clipPath id="clip0_3030_28936">
<rect width="28" height="28" fill="white" transform="translate(7 7)"/>
</clipPath>
</defs>
</svg>
