<svg width="42" height="42" viewBox="0 0 42 42" fill="none" xmlns="http://www.w3.org/2000/svg">
<rect width="42" height="42" rx="8" fill="#009C43" fill-opacity="0.1"/>
<g clip-path="url(#clip0_2781_65453)">
<path d="M20.999 9.82422C27.1619 9.82434 32.1758 14.8381 32.1758 21.001C32.1757 27.1637 27.1618 32.1776 20.999 32.1777C14.8361 32.1777 9.82239 27.1638 9.82227 21.001C9.82227 14.838 14.8361 9.82422 20.999 9.82422ZM20.999 10.9473C15.4554 10.9473 10.9453 15.4573 10.9453 21.001C10.9454 26.5445 15.4555 31.0547 20.999 31.0547C26.5425 31.0546 31.0526 26.5444 31.0527 21.001C31.0527 15.4574 26.5425 10.9474 20.999 10.9473Z" fill="#009C43" stroke="#009C43" stroke-width="0.2"/>
<path d="M18.6758 18.6475C18.985 18.6245 19.2554 18.8519 19.2812 19.1611C19.3738 20.2779 18.5981 21.2696 17.5195 21.4707L17.2998 21.5C16.1185 21.6007 15.0605 20.7229 14.9609 19.5186C14.9355 19.2099 15.1648 18.9389 15.4736 18.9131H15.4746C15.7895 18.8887 16.0546 19.118 16.0801 19.4268C16.1284 20.008 16.6398 20.4294 17.207 20.3809C17.7808 20.3335 18.2096 19.8276 18.1621 19.2539C18.1367 18.9449 18.3659 18.6733 18.6748 18.6475H18.6758Z" fill="#009C43" stroke="#009C43" stroke-width="0.2"/>
<path d="M26.4727 18.6943V18.6953C26.7757 18.7106 27.0318 18.9285 27.0391 19.2441C27.0652 20.4502 26.0998 21.4598 24.8701 21.46C23.6966 21.46 22.7312 20.5219 22.7051 19.3398C22.6982 19.0295 22.9439 18.7728 23.2539 18.7656H23.2598L23.3662 18.7793C23.6103 18.8336 23.8207 19.0375 23.8271 19.3145C23.8399 19.9104 24.3458 20.3563 24.8936 20.3359H24.8945C25.4346 20.3244 25.8713 19.9027 25.9131 19.375L25.916 19.2686C25.9094 18.9588 26.1551 18.7027 26.4648 18.6953L26.4727 18.6943Z" fill="#009C43" stroke="#009C43" stroke-width="0.2"/>
<path d="M22.582 15.3486C22.7907 15.12 23.1461 15.1027 23.375 15.3125C23.9043 15.795 24.376 16.1033 24.8516 16.2646C25.3254 16.4254 25.8107 16.4433 26.3711 16.334C26.6772 16.2738 26.9701 16.4734 27.0293 16.7773L27.04 16.8906C27.038 17.1144 26.9018 17.3173 26.6953 17.4033L26.5859 17.4355C25.8007 17.5881 25.1094 17.5419 24.4619 17.3164C23.8159 17.0914 23.219 16.6899 22.6182 16.1416C22.3892 15.9326 22.3732 15.5777 22.582 15.3486Z" fill="#009C43" stroke="#009C43" stroke-width="0.2"/>
<path d="M18.5371 15.1113C18.7354 14.9407 19.0317 14.9283 19.2461 15.0938C19.4913 15.2835 19.5366 15.6367 19.3467 15.8818C18.853 16.519 18.3026 16.9367 17.668 17.1914C17.0347 17.4455 16.3225 17.5349 15.5088 17.5225C15.1988 17.5158 14.953 17.2595 14.959 16.9492L14.9727 16.8359C15.0322 16.581 15.2704 16.4046 15.5273 16.3994H15.5322C16.2491 16.4181 16.8069 16.3383 17.2705 16.1455C17.7323 15.9534 18.1084 15.6455 18.458 15.1943L18.5371 15.1113Z" fill="#009C43" stroke="#009C43" stroke-width="0.2"/>
<path d="M20.998 22.5996C23.8977 22.5998 26.291 24.5505 26.291 26.9863C26.2909 27.2964 26.0393 27.5476 25.7295 27.5479H16.2666C15.9566 27.5479 15.7052 27.2966 15.7051 26.9863C15.7051 24.5504 18.0982 22.5996 20.998 22.5996ZM20.998 23.7227C18.9267 23.7227 17.2293 24.9065 16.8906 26.4248H25.1045C24.7658 24.9066 23.0692 23.7228 20.998 23.7227Z" fill="#009C43" stroke="#009C43" stroke-width="0.2"/>
</g>
<defs>
<clipPath id="clip0_2781_65453">
<rect width="24" height="24" fill="white" transform="translate(9 9)"/>
</clipPath>
</defs>
</svg>
