<svg width="40" height="40" viewBox="0 0 40 40" fill="none" xmlns="http://www.w3.org/2000/svg">
<g clip-path="url(#clip0_2957_36563)">
<path d="M27.1094 0C20.0077 0 14.2188 5.78898 14.2188 12.8906V18.75H17.7344C18.3907 18.75 18.9062 19.2655 18.9062 19.9219C18.9062 20.578 18.3907 21.0938 17.7344 21.0938H14.2188V31.7969C14.2188 36.3203 17.8984 40 22.4219 40C26.9453 40 30.625 36.3203 30.625 31.7969V29.9062C30.625 27.4219 31.8905 25.1249 34 23.789C37.7499 21.3984 40 17.3437 40 12.8906C40 5.78898 34.211 0 27.1094 0ZM34.1406 14.0625C33.4929 14.0625 32.9688 13.5384 32.9688 12.8906C32.9688 11.1545 32.2066 9.51805 30.8745 8.40109C29.5263 7.26812 27.8074 6.81727 26.0382 7.12625C24.2759 7.43453 22.7548 8.59492 21.9268 10.1466C22.1169 10.0361 22.2989 9.9132 22.5043 9.82703C23.2207 9.52719 23.9805 9.375 24.7656 9.375C27.9974 9.375 30.625 12.0037 30.625 15.2344C30.625 15.8821 30.1009 16.4062 29.4531 16.4062C28.8054 16.4062 28.2812 15.8821 28.2812 15.2344C28.2812 13.2958 26.7042 11.7188 24.7656 11.7188C24.2941 11.7188 23.8387 11.8091 23.4106 11.9888C22.6622 12.3024 22.0923 12.9238 21.8473 13.6962C21.6002 14.4676 21.7055 15.3041 22.1357 15.9908C22.1364 15.992 22.1364 15.9934 22.1371 15.9946C23.0905 17.5173 23.5938 19.2695 23.5938 21.0617C23.5938 22.7886 22.9117 24.472 21.5063 26.2207C21.3896 26.3672 21.25 26.6121 21.25 26.9531C21.25 27.5997 21.7764 28.125 22.4219 28.125C23.0673 28.125 23.5938 27.5997 23.5938 26.9531C23.5938 26.3054 24.1179 25.7812 24.7656 25.7812C25.4134 25.7812 25.9375 26.3054 25.9375 26.9531C25.9375 28.8917 24.3605 30.4688 22.4219 30.4688C20.4833 30.4688 18.9062 28.8917 18.9062 26.9531C18.9062 26.1555 19.1809 25.3738 19.6798 24.7536C20.7373 23.4375 21.25 22.2336 21.25 21.072C21.25 19.7091 20.8701 18.3849 20.1491 17.2337C19.0825 15.5251 18.6842 13.4731 19.0276 11.4533C19.5998 8.12766 22.3143 5.39937 25.6331 4.81687C28.0616 4.39461 30.522 5.04344 32.3828 6.60563C34.2436 8.16992 35.3125 10.461 35.3125 12.8906C35.3125 13.5384 34.7884 14.0625 34.1406 14.0625Z" fill="white"/>
<path d="M11.4297 18.7496L9.41406 14.7183C9.17961 14.273 8.7343 14.0152 8.24219 14.0621C7.74992 14.1324 7.35156 14.484 7.21094 14.9527L5.6407 21.2574L4.72664 19.4058C4.51562 19.0074 4.11719 18.7496 3.67188 18.7496H1.17188C0.515547 18.7496 0 19.2652 0 19.9215C0 20.5777 0.515547 21.0934 1.17188 21.0934H2.94531L4.96094 25.1245C5.11289 25.4115 5.42461 25.7809 6.13281 25.7809C6.62508 25.7105 7.02344 25.359 7.16406 24.8902L8.7343 18.5856L9.64836 20.437C9.85938 20.8356 10.2578 21.0934 10.7031 21.0934H14.2188V18.7496H11.4297Z" fill="#4ECF75"/>
<path d="M9.18791 30.1254L11.5317 27.7817C11.9894 27.3239 11.9894 26.5823 11.5317 26.1246C11.0739 25.6668 10.3323 25.6668 9.87455 26.1246L7.5308 28.4683C7.07307 28.926 7.07307 29.6677 7.5308 30.1254C7.98861 30.5832 8.73018 30.5832 9.18791 30.1254Z" fill="#4ECF75"/>
<path d="M7.5308 7.37461C7.07307 7.83234 7.07307 8.57398 7.5308 9.03172L9.87455 11.3755C10.3323 11.8332 11.0739 11.8332 11.5317 11.3755C11.9894 10.9177 11.9894 10.1761 11.5317 9.71836L9.18791 7.37461C8.7301 6.9168 7.98854 6.9168 7.5308 7.37461Z" fill="#4ECF75"/>
</g>
<defs>
<clipPath id="clip0_2957_36563">
<rect width="40" height="40" fill="white"/>
</clipPath>
</defs>
</svg>
