<svg width="47" height="47" viewBox="0 0 47 47" fill="none" xmlns="http://www.w3.org/2000/svg">
<g clip-path="url(#clip0_2781_65555)">
<path d="M26.6001 34.5073H27.319C28.0817 34.5073 28.8131 34.2044 29.3524 33.6651C29.8917 33.1258 30.1947 32.3944 30.1947 31.6317V23.7236C30.1947 22.5796 29.7402 21.4825 28.9313 20.6735C28.1224 19.8646 27.0252 19.4102 25.8812 19.4102H20.1299C18.9859 19.4102 17.8887 19.8646 17.0798 20.6735C16.2709 21.4825 15.8164 22.5796 15.8164 23.7236V31.6317C15.8164 32.3944 16.1194 33.1258 16.6587 33.6651C17.198 34.2044 17.9294 34.5073 18.6921 34.5073H19.411V45.291H26.6001V34.5073Z" fill="#32D176"/>
<path d="M23.0049 18.6914C25.3872 18.6914 27.3184 16.7602 27.3184 14.3779C27.3184 11.9957 25.3872 10.0645 23.0049 10.0645C20.6226 10.0645 18.6914 11.9957 18.6914 14.3779C18.6914 16.7602 20.6226 18.6914 23.0049 18.6914Z" fill="#32D176"/>
<path d="M43.1341 21.5674V29.4754C43.1341 30.2381 42.8311 30.9695 42.2918 31.5088C41.7525 32.0481 41.0211 32.3511 40.2584 32.3511H39.5395V43.1348H32.3503V32.3511H31.5667C31.6103 32.114 31.632 31.8733 31.6314 31.6322V23.7241C31.6317 22.8582 31.4358 22.0035 31.0586 21.224C30.6813 20.4446 30.1324 19.7607 29.4531 19.2237C29.8424 18.6185 30.3776 18.121 31.0095 17.7767C31.6414 17.4325 32.3497 17.2527 33.0693 17.2539H38.8206C39.9646 17.2539 41.0617 17.7084 41.8707 18.5173C42.6796 19.3262 43.1341 20.4234 43.1341 21.5674Z" fill="white"/>
<path d="M35.9463 16.5352C38.3286 16.5352 40.2598 14.604 40.2598 12.2217C40.2598 9.83941 38.3286 7.9082 35.9463 7.9082C33.564 7.9082 31.6328 9.83941 31.6328 12.2217C31.6328 14.604 33.564 16.5352 35.9463 16.5352Z" fill="white"/>
<path d="M14.3776 23.7241V31.6322C14.3771 31.8733 14.3988 32.114 14.4423 32.3511H13.6587V43.1348H6.46957V32.3511H5.75065C4.98798 32.3511 4.25655 32.0481 3.71726 31.5088C3.17797 30.9695 2.875 30.2381 2.875 29.4754V21.5674C2.875 20.4234 3.32945 19.3262 4.13839 18.5173C4.94732 17.7084 6.04448 17.2539 7.18848 17.2539H12.9398C13.6594 17.2527 14.3677 17.4325 14.9996 17.7767C15.6315 18.121 16.1667 18.6185 16.5559 19.2237C15.8766 19.7607 15.3278 20.4446 14.9505 21.224C14.5732 22.0035 14.3774 22.8582 14.3776 23.7241Z" fill="white"/>
<path d="M10.0635 16.5352C12.4458 16.5352 14.377 14.604 14.377 12.2217C14.377 9.83941 12.4458 7.9082 10.0635 7.9082C7.68121 7.9082 5.75 9.83941 5.75 12.2217C5.75 14.604 7.68121 16.5352 10.0635 16.5352Z" fill="white"/>
<path d="M17.2549 9.34571C19.6372 9.34571 21.5684 7.4145 21.5684 5.03223C21.5684 2.64996 19.6372 0.71875 17.2549 0.71875C14.8726 0.71875 12.9414 2.64996 12.9414 5.03223C12.9414 7.4145 14.8726 9.34571 17.2549 9.34571Z" fill="white"/>
<path d="M28.7549 9.34571C31.1372 9.34571 33.0684 7.4145 33.0684 5.03223C33.0684 2.64996 31.1372 0.71875 28.7549 0.71875C26.3726 0.71875 24.4414 2.64996 24.4414 5.03223C24.4414 7.4145 26.3726 9.34571 28.7549 9.34571Z" fill="white"/>
</g>
<defs>
<clipPath id="clip0_2781_65555">
<rect width="46.0105" height="46.0105" fill="white"/>
</clipPath>
</defs>
</svg>
