<svg width="28" height="28" viewBox="0 0 28 28" fill="none" xmlns="http://www.w3.org/2000/svg">
  <path d="M13.5 4.5c-3.8 0-6.8 3-6.8 7.2 0 3 1.4 5.2 3.4 7 .9.8 1.8 1.7 2.1 2.8.2.7.3 1.4.2 2.1" stroke="#009C43" stroke-width="1.6" stroke-linecap="round"/>
  <path d="M17.2 10.8c1.2 1 1.9 2.3 1.9 3.8s-.7 2.8-1.9 3.8" stroke="#009C43" stroke-width="1.5" stroke-linecap="round"/>
  <path d="M20 8.5c1.9 1.5 3 3.6 3 6.1s-1.1 4.6-3 6.1" stroke="#009C43" stroke-width="1.5" stroke-linecap="round"/>
  <path d="M21.5 5.2l.9 1.8 2 .3-1.4 1.4.3 2-1.8-.9-1.8.9.3-2-1.4-1.4 2-.3.9-1.8z" fill="#009C43"/>
  <path d="M24.8 12.2l.5 1 1.1.2-.8.8.2 1.1-1-.5-1 .5.2-1.1-.8-.8 1.1-.2.5-1z" fill="#009C43"/>
</svg>
