<svg width="52" height="52" viewBox="0 0 52 52" fill="none" xmlns="http://www.w3.org/2000/svg">
<rect width="52" height="52" rx="26" fill="white"/>
<path d="M26.4947 22.2703V22.4979H27.901V22.2703C27.901 19.7756 25.8715 17.7461 23.3768 17.7461C20.8822 17.7461 18.8526 19.7756 18.8526 22.2703V24.1459H19.5557C20.3218 24.1459 20.9451 24.7691 20.9451 25.5353C20.9451 26.3014 20.3219 26.9246 19.5557 26.9246C19.2773 26.9246 19.0088 26.8427 18.7795 26.6878L17.9922 27.853C18.4549 28.1656 18.9956 28.3308 19.5557 28.3308C21.0972 28.3308 22.3514 27.0767 22.3514 25.5352C22.3514 24.2365 21.4612 23.1417 20.2589 22.8292V22.2703C20.2589 20.551 21.6576 19.1523 23.3768 19.1523C25.096 19.1523 26.4947 20.551 26.4947 22.2703Z" fill="#009C43"/>
<path d="M36.8966 38L36.0172 29.2678C35.8632 27.7387 34.5881 26.5856 33.0513 26.5856C31.5145 26.5856 30.2394 27.7387 30.0854 29.2678L29.9835 30.2798L29.8816 29.2678C29.8398 28.8526 29.7148 28.4655 29.5248 28.1213C30.8984 26.4815 31.65 24.4207 31.65 22.2702C31.6499 17.71 27.9399 14 23.3796 14C18.8194 14 15.1094 17.71 15.1094 22.2703V33.0098C15.1094 35.7614 17.348 38 20.0996 38C21.2367 38 22.3151 37.6105 23.1776 36.9348L23.0703 38H36.8966ZM31.4845 29.4087C31.5659 28.601 32.2394 27.9918 33.0513 27.9918C33.8632 27.9918 34.5367 28.6009 34.618 29.4087L35.3416 36.5938H30.7609L31.4845 29.4087ZM24.6253 36.5938L25.3489 29.4087C25.4303 28.601 26.1038 27.9918 26.9157 27.9918C27.7275 27.9918 28.4011 28.601 28.4824 29.4087L29.206 36.5938H24.6253ZM20.0996 36.5938C18.1234 36.5938 16.5156 34.986 16.5156 33.0098V22.2703C16.5156 18.4854 19.5948 15.4062 23.3797 15.4062C27.1645 15.4062 30.2436 18.4854 30.2437 22.2702C30.2437 24.028 29.6499 25.715 28.5613 27.0783C28.0888 26.7662 27.5229 26.5856 26.9157 26.5856C25.3788 26.5856 24.1038 27.7387 23.9498 29.2678L23.4412 34.3184L23.3665 34.4839C22.7881 35.7655 21.5058 36.5938 20.0996 36.5938Z" fill="#009C43"/>
</svg>
