<svg width="52" height="52" viewBox="0 0 52 52" fill="none" xmlns="http://www.w3.org/2000/svg">
<rect width="52" height="52" rx="26" fill="white"/>
<path fill-rule="evenodd" clip-rule="evenodd" d="M38.5306 14.2198C38.8234 14.5127 38.8234 14.9876 38.5306 15.2805L16.0303 37.7804C15.7375 38.0732 15.2626 38.0732 14.9697 37.7804C14.6768 37.4875 14.6768 37.0126 14.9697 36.7196L37.47 14.2197C37.7629 13.9268 38.2377 13.9269 38.5306 14.2198Z" fill="#009C43"/>
<path fill-rule="evenodd" clip-rule="evenodd" d="M33.2117 19.4089C33.3938 19.551 33.5002 19.7691 33.5002 20V32C33.5002 32.231 33.3938 32.4491 33.2117 32.5911C33.0296 32.7333 32.7923 32.7836 32.5682 32.7276L20.5681 29.7276C20.2342 29.6441 20 29.3441 20 29V23C20 22.6558 20.2342 22.3559 20.5681 22.2724L32.5682 19.2724C32.7923 19.2164 33.0296 19.2667 33.2117 19.4089ZM21.5 23.5856V28.4144L32.0001 31.0394V20.9606L21.5 23.5856Z" fill="#009C43"/>
<path fill-rule="evenodd" clip-rule="evenodd" d="M32.75 17.75C33.1642 17.75 33.5 18.0858 33.5 18.5V33.4999C33.5 33.9141 33.1642 34.2499 32.75 34.2499C32.3359 34.2499 32 33.9141 32 33.4999V18.5C32 18.0858 32.3359 17.75 32.75 17.75Z" fill="#009C43"/>
<path fill-rule="evenodd" clip-rule="evenodd" d="M15.5 26C15.5 23.9289 17.179 22.25 19.25 22.25H20.7501C21.1643 22.25 21.5001 22.5858 21.5001 23V29C21.5001 29.4141 21.1643 29.75 20.7501 29.75H19.25C17.179 29.75 15.5 28.071 15.5 26ZM19.25 23.75C18.0074 23.75 17 24.7574 17 26C17 27.2426 18.0074 28.25 19.25 28.25H20.0001V23.75H19.25Z" fill="#009C43"/>
<path fill-rule="evenodd" clip-rule="evenodd" d="M14 26C14 25.5858 14.3358 25.25 14.75 25.25H16.25C16.6642 25.25 17 25.5858 17 26C17 26.4141 16.6642 26.75 16.25 26.75H14.75C14.3358 26.75 14 26.4141 14 26Z" fill="#009C43"/>
<path fill-rule="evenodd" clip-rule="evenodd" d="M20.5683 28.2725C20.9701 28.1722 21.3773 28.4165 21.4778 28.8184L22.9778 34.8184C23.0783 35.2201 22.834 35.6273 22.4321 35.7278C22.0303 35.8283 21.6231 35.584 21.5226 35.1821L20.0226 29.1821C19.9221 28.7803 20.1664 28.373 20.5683 28.2725Z" fill="#009C43"/>
<path fill-rule="evenodd" clip-rule="evenodd" d="M35 26C35 25.5858 35.3359 25.25 35.75 25.25H38C38.4142 25.25 38.75 25.5858 38.75 26C38.75 26.4141 38.4142 26.75 38 26.75H35.75C35.3359 26.75 35 26.4141 35 26Z" fill="#009C43"/>
<path fill-rule="evenodd" clip-rule="evenodd" d="M35.2197 23.5304C34.9268 23.2374 34.9268 22.7626 35.2197 22.4697L36.7197 20.9697C37.0125 20.6768 37.4874 20.6768 37.7804 20.9697C38.0732 21.2626 38.0732 21.7374 37.7804 22.0303L36.2804 23.5304C35.9874 23.8232 35.5125 23.8232 35.2197 23.5304Z" fill="#009C43"/>
<path fill-rule="evenodd" clip-rule="evenodd" d="M35.2197 28.4696C34.9268 28.7625 34.9268 29.2374 35.2197 29.5304L36.7197 31.0304C37.0125 31.3232 37.4874 31.3232 37.7804 31.0304C38.0732 30.7374 38.0732 30.2625 37.7804 29.9696L36.2804 28.4696C35.9874 28.1768 35.5125 28.1768 35.2197 28.4696Z" fill="#009C43"/>
</svg>
