<svg width="52" height="52" viewBox="0 0 52 52" fill="none" xmlns="http://www.w3.org/2000/svg">
<rect width="52" height="52" rx="26" fill="white"/>
<path d="M19.1328 20.0927C19.1328 19.617 19.1328 19.1412 19.1328 18.6631C19.1328 17.9084 19.1328 17.1537 19.1328 16.3966C19.1328 16.2209 19.1328 16.0474 19.1328 15.8716C19.1328 15.5037 18.8094 15.1521 18.4297 15.1685C18.0477 15.1849 17.7266 15.4779 17.7266 15.8716V17.3013V19.5677V20.0927C17.7266 20.4607 18.05 20.8123 18.4297 20.7959C18.8117 20.7795 19.1328 20.4865 19.1328 20.0927Z" fill="#009C43"/>
<path d="M19.137 36.1236C19.137 35.6806 19.137 35.24 19.137 34.797C19.137 33.7353 19.137 32.6736 19.137 31.6119C19.137 30.3322 19.137 29.0525 19.137 27.7728C19.137 26.6666 19.137 25.5603 19.137 24.4541C19.137 23.915 19.1464 23.3736 19.137 22.8345C19.137 22.8275 19.137 22.8205 19.137 22.8111C19.137 22.4431 18.8135 22.0916 18.4339 22.108C18.0518 22.1244 17.7307 22.4173 17.7307 22.8111V24.1377V27.3228V31.1619V34.4806C17.7307 35.0197 17.7214 35.5611 17.7307 36.1002V36.1236C17.7307 36.4916 18.0542 36.8431 18.4339 36.8267C18.8159 36.8103 19.137 36.5173 19.137 36.1236Z" fill="#009C43"/>
<path d="M15.8756 20.7949H17.6123H20.3709H21.0084C21.3763 20.7949 21.7279 20.4715 21.7115 20.0918C21.6951 19.7098 21.4021 19.3887 21.0084 19.3887C20.4295 19.3887 19.8506 19.3887 19.2716 19.3887C18.3529 19.3887 17.4341 19.3887 16.5131 19.3887C16.2998 19.3887 16.0888 19.3887 15.8756 19.3887C15.5076 19.3887 15.156 19.7121 15.1724 20.0918C15.1888 20.4738 15.4818 20.7949 15.8756 20.7949Z" fill="#009C43"/>
<path d="M23.399 29.8887H25.1357H27.8943H28.5318C28.8998 29.8887 29.2513 29.5652 29.2349 29.1855C29.2185 28.8035 28.9256 28.4824 28.5318 28.4824C27.9529 28.4824 27.374 28.4824 26.7951 28.4824C25.8763 28.4824 24.9576 28.4824 24.0365 28.4824C23.8232 28.4824 23.6123 28.4824 23.399 28.4824C23.031 28.4824 22.6795 28.8059 22.6959 29.1855C22.7123 29.5676 23.0052 29.8887 23.399 29.8887Z" fill="#009C43"/>
<path d="M26.6839 29.1861C26.6839 28.7431 26.6839 28.3025 26.6839 27.8595C26.6839 26.7978 26.6839 25.7361 26.6839 24.6744C26.6839 23.3947 26.6839 22.115 26.6839 20.8353C26.6839 19.7291 26.6839 18.6228 26.6839 17.5166C26.6839 16.9775 26.6932 16.4361 26.6839 15.897C26.6839 15.89 26.6839 15.883 26.6839 15.8736C26.6839 15.5056 26.3604 15.1541 25.9807 15.1705C25.5987 15.1869 25.2776 15.4798 25.2776 15.8736V17.2002V20.3853V24.2244V27.5431C25.2776 28.0822 25.2682 28.6236 25.2776 29.1627V29.1861C25.2776 29.5541 25.601 29.9056 25.9807 29.8892C26.3628 29.8728 26.6839 29.5798 26.6839 29.1861Z" fill="#009C43"/>
<path d="M26.6797 36.124C26.6797 35.6482 26.6797 35.1724 26.6797 34.6943C26.6797 33.9396 26.6797 33.1849 26.6797 32.4279C26.6797 32.2521 26.6797 32.0787 26.6797 31.9029C26.6797 31.5349 26.3563 31.1834 25.9766 31.1998C25.5945 31.2162 25.2734 31.5091 25.2734 31.9029V33.3326V35.599V36.124C25.2734 36.492 25.5969 36.8435 25.9766 36.8271C26.3586 36.8107 26.6797 36.5177 26.6797 36.124Z" fill="#009C43"/>
<path d="M34.2297 24.2877C34.2297 24.0088 34.2297 23.7322 34.2297 23.4533C34.2297 22.783 34.2297 22.1103 34.2297 21.44C34.2297 20.6314 34.2297 19.8228 34.2297 19.0142C34.2297 18.3134 34.2297 17.615 34.2297 16.9142C34.2297 16.572 34.2367 16.2298 34.2297 15.8877C34.2297 15.883 34.2297 15.8783 34.2297 15.8736C34.2297 15.5056 33.9062 15.1541 33.5266 15.1705C33.1445 15.1869 32.8234 15.4798 32.8234 15.8736V16.708V18.7213V21.147V23.247C32.8234 23.5892 32.8164 23.9314 32.8234 24.2736V24.2877C32.8234 24.6556 33.1469 25.0072 33.5266 24.9908C33.9086 24.9744 34.2297 24.6814 34.2297 24.2877Z" fill="#009C43"/>
<path d="M34.2297 36.124C34.2297 35.8216 34.2297 35.5193 34.2297 35.217C34.2297 34.4904 34.2297 33.7662 34.2297 33.0396C34.2297 32.1607 34.2297 31.2841 34.2297 30.4052C34.2297 29.6459 34.2297 28.8865 34.2297 28.1271C34.2297 27.7591 34.2367 27.3888 34.2297 27.0209C34.2297 27.0162 34.2297 27.0115 34.2297 27.0045C34.2297 26.6365 33.9062 26.2849 33.5266 26.3013C33.1445 26.3177 32.8234 26.6107 32.8234 27.0045V27.9115V30.0888V32.7232V35.0013C32.8234 35.3693 32.8164 35.7396 32.8234 36.1076V36.124C32.8234 36.492 33.1469 36.8435 33.5266 36.8271C33.9086 36.8107 34.2297 36.5177 34.2297 36.124Z" fill="#009C43"/>
<path d="M30.9693 24.9902H32.706H35.4646H36.1021C36.4701 24.9902 36.8216 24.6668 36.8052 24.2871C36.7888 23.9051 36.4959 23.584 36.1021 23.584C35.5232 23.584 34.9443 23.584 34.3654 23.584C33.4466 23.584 32.5279 23.584 31.6068 23.584C31.3935 23.584 31.1826 23.584 30.9693 23.584C30.6013 23.584 30.2498 23.9074 30.2662 24.2871C30.2826 24.6691 30.5756 24.9902 30.9693 24.9902Z" fill="#009C43"/>
</svg>
