<svg width="52" height="52" viewBox="0 0 52 52" fill="none" xmlns="http://www.w3.org/2000/svg">
<rect width="52" height="52" rx="26" fill="white"/>
<g clip-path="url(#clip0_2739_38199)">
<path d="M30.2756 28.1179L26.9294 25.6082V20.4959C26.9294 19.9819 26.5139 19.5664 25.9998 19.5664C25.4858 19.5664 25.0703 19.9819 25.0703 20.4959V26.073C25.0703 26.3658 25.2079 26.6419 25.4421 26.8167L29.1602 29.6052C29.3275 29.7307 29.5227 29.7911 29.7169 29.7911C30.0004 29.7911 30.2793 29.6638 30.4615 29.4184C30.7702 29.0084 30.6865 28.4256 30.2756 28.1179Z" fill="#009C43"/>
<path d="M26 14C19.3828 14 14 19.3828 14 26C14 32.6172 19.3828 38 26 38C32.6172 38 38 32.6172 38 26C38 19.3828 32.6172 14 26 14ZM26 36.141C20.409 36.141 15.859 31.591 15.859 26C15.859 20.409 20.409 15.859 26 15.859C31.592 15.859 36.141 20.409 36.141 26C36.141 31.591 31.591 36.141 26 36.141Z" fill="#009C43"/>
</g>
<defs>
<clipPath id="clip0_2739_38199">
<rect width="24" height="24" fill="white" transform="translate(14 14)"/>
</clipPath>
</defs>
</svg>
