<svg width="42" height="42" viewBox="0 0 42 42" fill="none" xmlns="http://www.w3.org/2000/svg">
<rect width="42" height="42" rx="10" fill="#E5F5EC"/>
<g clip-path="url(#clip0_3030_28953)">
<path d="M15.1397 7.91786C10.4909 8.36121 7 12.5025 7 17.2516V28.1049C7 31.2217 9.34615 33.9558 12.4346 34.1175C15.7269 34.2903 18.4844 31.6802 18.4844 28.3835C18.4844 26.8571 19.2799 25.4454 20.5604 24.6994C23.2576 23.1279 25.0469 20.2105 25.0469 16.8991C25.0469 11.7276 20.622 7.3951 15.1397 7.91786ZM19.7345 23.2818C17.9514 24.3206 16.8438 26.2754 16.8438 28.3835C16.8438 30.7169 14.8969 32.6034 12.5204 32.4792C10.3811 32.3671 8.64062 30.4049 8.64062 28.1049V17.2516C8.64062 13.1609 11.7898 9.51589 16.0311 9.51589C20.1743 9.51589 23.4062 12.9007 23.4062 16.899C23.4062 19.5165 21.9993 21.9623 19.7345 23.2818Z" fill="#009C43"/>
<path d="M16.0234 11.1562C12.8572 11.1562 10.2812 13.7322 10.2812 16.8984V20.147C10.2812 21.1846 10.7734 22.1793 11.598 22.8078C11.8038 22.9646 11.9219 23.2027 11.9219 23.4609C11.9219 23.9133 11.5539 24.2813 11.1016 24.2813C10.6485 24.2813 10.2812 24.6485 10.2812 25.1016C10.2812 25.5546 10.6485 25.9219 11.1016 25.9219C12.4585 25.9219 13.5625 24.8179 13.5625 23.4609C13.5625 22.6865 13.2089 21.9728 12.5925 21.5029C12.1726 21.1828 11.9219 20.6759 11.9219 20.1469V18.539C11.9219 17.182 13.0259 16.0781 14.3828 16.0781C15.7398 16.0781 16.8438 17.182 16.8438 18.539C16.8438 19.4149 16.372 20.232 15.6127 20.6712C15.2205 20.8981 15.0865 21.3999 15.3134 21.792C15.5403 22.1843 16.0421 22.3181 16.4342 22.0913C17.6988 21.3598 18.4844 19.9987 18.4844 18.5391C18.4844 16.2775 16.6444 14.4375 14.3828 14.4375C13.673 14.4375 13.0048 14.6189 12.4219 14.9376C13.1185 13.6632 14.4717 12.7969 16.0234 12.7969C18.285 12.7969 20.125 14.6368 20.125 16.8984C20.125 17.3515 20.4923 17.7188 20.9453 17.7188C21.3983 17.7188 21.7656 17.3515 21.7656 16.8984C21.7656 13.7322 19.1897 11.1562 16.0234 11.1562Z" fill="#009C43"/>
<path d="M30.1191 16.5996C30.4395 16.2792 30.4395 15.7598 30.1191 15.4395C29.7988 15.1191 29.2794 15.1191 28.959 15.4395C25.4407 18.9577 25.4407 24.6823 28.959 28.2005C29.2793 28.5209 29.7988 28.5209 30.1191 28.2005C30.4395 27.8802 30.4395 27.3608 30.1191 27.0405C27.2405 24.1619 27.2405 19.4782 30.1191 16.5996Z" fill="#009C43"/>
<path d="M32.4408 17.7598C32.1205 17.4394 31.6011 17.4394 31.2807 17.7598C29.0418 19.9987 29.0418 23.6416 31.2807 25.8805C31.601 26.2008 32.1205 26.2008 32.4408 25.8805C32.7611 25.5601 32.7611 25.0407 32.4408 24.7204C30.8416 23.1211 30.8416 20.5191 32.4408 18.9199C32.7611 18.5995 32.7611 18.0801 32.4408 17.7598Z" fill="#009C43"/>
<path d="M34.5223 21.8203C34.5223 21.6011 34.6076 21.3952 34.7626 21.2402C35.0829 20.9198 35.0829 20.4005 34.7626 20.0801C34.4423 19.7598 33.9228 19.7598 33.6025 20.0801C32.6429 21.0396 32.6429 22.6009 33.6025 23.5604C33.9228 23.8808 34.4423 23.8808 34.7626 23.5604C35.0829 23.2401 35.0829 22.7207 34.7626 22.4003C34.6076 22.2454 34.5223 22.0393 34.5223 21.8203Z" fill="#009C43"/>
</g>
<defs>
<clipPath id="clip0_3030_28953">
<rect width="28" height="28" fill="white" transform="translate(7 7)"/>
</clipPath>
</defs>
</svg>
