<svg width="28" height="28" viewBox="0 0 28 28" fill="none" xmlns="http://www.w3.org/2000/svg">
  <path d="M12.5 4.5c-3.8 0-6.8 3-6.8 7.2 0 3 1.4 5.2 3.4 7 .9.8 1.8 1.7 2.1 2.8.2.7.3 1.4.2 2.1" stroke="#009C43" stroke-width="1.6" stroke-linecap="round"/>
  <path d="M16.5 10.5c1.3 1 2 2.4 2 4s-.7 3-2 4" stroke="#009C43" stroke-width="1.5" stroke-linecap="round"/>
  <path d="M19.2 8.2c2 1.6 3.2 3.8 3.2 6.3s-1.2 4.7-3.2 6.3" stroke="#009C43" stroke-width="1.5" stroke-linecap="round"/>
  <path d="M21.9 5.8c2.7 2.1 4.3 5.1 4.3 8.7s-1.6 6.6-4.3 8.7" stroke="#009C43" stroke-width="1.5" stroke-linecap="round"/>
</svg>
