<svg width="42" height="42" viewBox="0 0 42 42" fill="none" xmlns="http://www.w3.org/2000/svg">
<rect width="42" height="42" rx="8" fill="#009C43" fill-opacity="0.1"/>
<path d="M17.2705 10.8408C19.339 9.96306 21.8512 10.3408 23.9248 12.4697L24.124 12.6816L24.125 12.6826C25.2884 14.0002 25.9532 15.6845 26.0029 17.4414V17.4463C25.9979 17.7333 26.0432 18.2471 25.8457 18.9814C25.648 19.7164 25.2079 20.6699 24.2402 21.8633C24.0232 22.1426 23.2472 23.1686 22.4814 24.1973C21.7138 25.2285 20.964 26.2542 20.7939 26.541L20.79 26.5469C20.5411 26.9093 20.3813 27.3848 20.2188 27.8945C20.0782 28.3355 19.9361 28.801 19.7295 29.2158L19.6367 29.3896C18.82 30.8341 17.6796 31.5994 16.3672 31.5996H16.3613C15.3385 31.5462 14.2939 31.2013 13.5596 30.4707C12.8218 29.7365 12.4094 28.6251 12.6318 27.0693L12.6338 27.0586L12.7314 27.084L12.6348 27.0586C12.6407 27.0351 12.6488 26.9786 12.6592 26.8857C12.6694 26.7947 12.681 26.6744 12.6934 26.5293C12.7181 26.2389 12.7464 25.8494 12.7773 25.3936C12.8392 24.4817 12.9108 23.3036 12.9805 22.1172C13.1195 19.748 13.2518 17.3381 13.2891 16.9473C13.496 13.9748 15.1395 11.7452 17.2705 10.8408ZM20.6299 11.5234C18.9872 11.0049 17.4186 11.5489 16.2422 12.6396C15.0643 13.7319 14.2878 15.3666 14.2383 17.0049V17.0078L13.7021 25.9014C13.6675 26.4575 13.597 27.0059 13.5342 27.5459L13.5332 27.5518C13.4371 28.0911 13.5193 28.6469 13.7666 29.1357C14.014 29.6246 14.4137 30.0207 14.9053 30.2627C15.9339 30.7723 16.7395 30.7243 17.3682 30.415C18.0028 30.1028 18.4725 29.5162 18.8086 28.9219C19.0421 28.4835 19.1948 27.978 19.3584 27.4717C19.5206 26.9697 19.6946 26.4668 19.9736 26.0605C19.9863 26.0348 20.003 26.0019 20.0244 25.9678C20.0533 25.9217 20.0918 25.864 20.1377 25.7969C20.2296 25.6625 20.3548 25.4872 20.501 25.2852C20.7935 24.8809 21.1739 24.3665 21.5586 23.8506C22.3301 22.8159 23.1139 21.7792 23.2393 21.5938L23.2412 21.5898C23.328 21.4731 23.4216 21.3601 23.5146 21.251C25.1387 19.3453 25.062 17.7624 25.0605 17.7334L25.0596 17.7236C25.1202 15.0127 23.2539 12.2713 20.6328 11.5244L20.6299 11.5234Z" fill="#009C43" stroke="#009C43" stroke-width="0.2"/>
<path d="M17.0684 13.6055C18.2606 12.8282 19.8751 12.58 21.4297 13.418H21.4287C21.4871 13.4456 22.1668 13.7825 22.8193 14.4854C23.4555 15.1707 24.0679 16.2055 24.0527 17.6387L24.041 17.9307C24.0318 18.042 23.9792 18.1458 23.8945 18.2188C23.8098 18.2916 23.6994 18.3279 23.5879 18.3203C23.4763 18.3127 23.3719 18.2615 23.2979 18.1777C23.2239 18.094 23.1853 17.9846 23.1914 17.873V17.8721C23.28 16.5762 22.7519 15.6567 22.1973 15.0586C21.9197 14.7593 21.6349 14.5399 21.4189 14.3955C21.3112 14.3235 21.2206 14.2701 21.1562 14.2344C21.1241 14.2165 21.0979 14.2034 21.0801 14.1943C21.0713 14.1899 21.0644 14.1859 21.0596 14.1836C21.0573 14.1825 21.055 14.1813 21.0537 14.1807H21.0527L21.0498 14.1787C20.1441 13.6977 19.3338 13.6563 18.6396 13.8369C17.9442 14.0179 17.3611 14.4225 16.9131 14.8398V14.8408C16.5179 15.1999 16.2433 15.6728 16.1289 16.1943C16.0184 16.6985 16.0633 17.2238 16.2549 17.7021C16.7009 17.4657 17.4347 17.1369 18.2432 17.0342C19.0825 16.9275 20.0059 17.0631 20.7656 17.7969L20.9365 17.9463C21.3235 18.3063 21.6326 18.7437 21.8428 19.2305C22.0829 19.7868 22.1872 20.3924 22.1475 20.9971C22.133 21.3716 22.0358 21.738 21.8643 22.0713C21.2704 23.2885 20.2507 24.2458 18.998 24.7607L18.9961 24.7617C18.8224 24.8236 18.6604 24.9147 18.5176 25.0312L18.5156 25.0332C18.1332 25.3178 17.947 25.6713 17.7695 26.0273C17.5929 26.3817 17.4239 26.743 17.0732 27.0176C16.8148 27.2442 16.4987 27.3953 16.1602 27.4551C15.8208 27.5149 15.4714 27.4807 15.1504 27.3555C14.8294 27.2302 14.549 27.0189 14.3398 26.7451C14.1306 26.4712 14.0002 26.1445 13.9639 25.8018V25.7988C13.9452 25.4247 14.0407 25.0533 14.2373 24.7344C14.4093 24.4555 14.652 24.2282 14.9395 24.0742L15.0654 24.0127C15.4584 23.8257 15.7995 23.5453 16.0596 23.1963C16.3198 22.847 16.4911 22.4393 16.5576 22.0088V22.0068C16.7469 21.0199 16.5528 19.9975 16.0137 19.1494C15.5917 18.4947 15.3233 17.7529 15.2305 16.9795V16.9785C15.1013 15.6906 15.878 14.3815 17.0684 13.6055ZM20.1914 18.4248C19.6294 17.8707 18.9012 17.7919 18.2197 17.9023C17.5681 18.008 16.9661 18.2864 16.6104 18.4775C17.3613 19.5624 17.6066 20.8929 17.3994 22.0723C17.1892 23.2683 16.5129 24.314 15.4238 24.7842L15.4219 24.7852C15.2429 24.8528 15.0887 24.9732 14.9805 25.1309C14.8722 25.2886 14.8152 25.4757 14.8164 25.667C14.8176 25.8583 14.877 26.0448 14.9873 26.2012C15.0699 26.3183 15.1782 26.4141 15.3027 26.4824L15.4336 26.542L15.4375 26.543V26.5439C15.7707 26.7039 16.1024 26.6504 16.3828 26.4707C16.6646 26.29 16.8938 25.9816 17.0117 25.6367L17.0127 25.6328L17.0977 25.4521C17.3078 25.0382 17.6042 24.6729 17.9678 24.3818C18.1842 24.2025 18.4301 24.0616 18.6943 23.9658C19.7491 23.5264 20.6068 22.7166 21.1055 21.6885L21.1064 21.6875C21.222 21.4638 21.2866 21.2174 21.2969 20.9658V20.9639C21.3317 20.4941 21.2546 20.0228 21.0713 19.5889C20.888 19.1551 20.6041 18.7713 20.2432 18.4688V18.4678C20.2249 18.4548 20.2074 18.4406 20.1914 18.4248Z" fill="#009C43" stroke="#009C43" stroke-width="0.1"/>
<path d="M27.7441 21.2422C27.8651 21.2139 27.9924 21.2345 28.0986 21.2988C28.2051 21.3634 28.2826 21.4673 28.3135 21.5879C29.3262 25.5202 26.591 29.7368 22.5723 30.373L22.5635 30.374H22.5537C22.4372 30.3716 22.3257 30.3262 22.2402 30.2471C22.1546 30.1677 22.1011 30.0595 22.0898 29.9434C22.0787 29.8274 22.1101 29.7113 22.1787 29.6172C22.2475 29.523 22.3489 29.4573 22.4629 29.4326L22.4648 29.4316C23.2972 29.2706 24.0886 28.9425 24.791 28.4678C25.4934 27.9931 26.0929 27.3812 26.5527 26.6689C27.0125 25.9568 27.3233 25.1587 27.4668 24.3232C27.6102 23.4879 27.5834 22.6323 27.3877 21.8076V21.8047C27.3618 21.6831 27.3846 21.5562 27.4512 21.4512C27.5178 21.3461 27.623 21.2706 27.7441 21.2422Z" fill="#009C43" stroke="#009C43" stroke-width="0.2"/>
<path d="M25.5684 21.7676C25.6912 21.7392 25.8208 21.7605 25.9277 21.8271C26.0346 21.8938 26.1101 22.0004 26.1387 22.123L26.1914 22.3691C26.2992 22.946 26.3046 23.5383 26.2061 24.1182C26.0934 24.7809 25.8474 25.4143 25.4834 25.9795C25.1125 26.5553 24.6253 27.0474 24.0537 27.4248C23.4821 27.8021 22.8383 28.0561 22.1631 28.1709L22.1533 28.1729H22.1445C22.0279 28.1706 21.9157 28.1251 21.8301 28.0459C21.7446 27.9668 21.6911 27.8591 21.6797 27.7432C21.6683 27.6272 21.7001 27.5113 21.7686 27.417C21.8372 27.3227 21.9378 27.2564 22.0518 27.2314H22.0537C22.5879 27.1284 23.096 26.9178 23.5469 26.6133C23.9978 26.3087 24.3826 25.9161 24.6777 25.459C24.9728 25.0019 25.1727 24.4894 25.2646 23.9531C25.3565 23.4171 25.3388 22.8679 25.2129 22.3389V22.3379C25.1846 22.2152 25.2059 22.0863 25.2725 21.9795C25.3392 21.8727 25.4457 21.796 25.5684 21.7676Z" fill="#009C43" stroke="#009C43" stroke-width="0.2"/>
<path d="M28.7178 15.1855C28.8429 15.1796 28.9655 15.2238 29.0586 15.3076C29.1516 15.3915 29.2078 15.5087 29.2148 15.6338C29.2219 15.7588 29.1796 15.8818 29.0967 15.9756L29.0957 15.9766C28.722 16.3918 28.3094 16.8654 28.0381 17.1904C28.2376 17.3075 28.503 17.4699 28.8584 17.6982L28.8594 17.6992C28.9188 17.7381 28.9689 17.7899 29.0059 17.8506C29.0427 17.9111 29.0659 17.9793 29.0732 18.0498C29.0805 18.1203 29.0715 18.192 29.0479 18.2588C29.0242 18.3255 28.9865 18.3864 28.9365 18.4365L28.9355 18.4375L27.9834 19.376L27.9824 19.377L27.9131 19.3047L27.9814 19.377C27.8911 19.4624 27.7708 19.509 27.6465 19.5068C27.5221 19.5046 27.4037 19.4538 27.3164 19.3652C27.2291 19.2767 27.1801 19.1576 27.1797 19.0332C27.1793 18.9087 27.2276 18.7884 27.3145 18.6992L27.3154 18.6982L27.8389 18.1816C27.7123 18.104 27.5926 18.0315 27.4902 17.9717C27.3565 17.8936 27.2586 17.8393 27.2139 17.8203V17.8193C27.1468 17.802 27.0833 17.773 27.0293 17.7295C26.9704 17.682 26.9231 17.6215 26.8916 17.5527V17.5518C26.8643 17.4905 26.8296 17.4163 26.8398 17.3174C26.8496 17.2231 26.898 17.1193 26.9912 16.9814C27.1782 16.7047 27.582 16.2359 28.3887 15.3398H28.3896C28.4743 15.2473 28.5925 15.1916 28.7178 15.1855Z" fill="#009C43" stroke="#009C43" stroke-width="0.2"/>
<path d="M28.9287 27.0352C28.9909 27.0319 29.0536 27.0417 29.1123 27.0625C29.171 27.0833 29.2252 27.1156 29.2715 27.1572C29.365 27.2416 29.4211 27.3596 29.4277 27.4854C29.4343 27.6112 29.3909 27.7344 29.3066 27.8281C28.9326 28.2435 28.5203 28.7178 28.249 29.043C28.4484 29.16 28.714 29.3226 29.0693 29.5508H29.0703C29.1296 29.5896 29.1789 29.6416 29.2158 29.7021C29.2527 29.7628 29.2759 29.8308 29.2832 29.9014C29.2905 29.972 29.2825 30.0434 29.2588 30.1104C29.2351 30.1772 29.1966 30.2378 29.1465 30.2881L29.1455 30.2891L28.1934 31.2275C28.1034 31.3154 27.9822 31.3645 27.8564 31.3633C27.7309 31.362 27.6106 31.3111 27.5225 31.2217C27.4342 31.1321 27.3851 31.0105 27.3857 30.8848C27.3865 30.7592 27.4373 30.6393 27.5264 30.5508V30.5498L28.0498 30.0332C27.9245 29.9561 27.8101 29.8897 27.7061 29.832C27.5746 29.7592 27.4562 29.6961 27.3613 29.6387C27.2674 29.5818 27.1851 29.5237 27.1279 29.4561C27.067 29.3839 27.0343 29.2998 27.042 29.2002C27.0492 29.1068 27.091 29.0086 27.1562 28.9014C27.2222 28.793 27.3173 28.6659 27.4424 28.5137C27.6924 28.2094 28.0735 27.79 28.5996 27.1934V27.1924C28.6413 27.1461 28.6918 27.1079 28.748 27.0811C28.8044 27.0542 28.8664 27.0384 28.9287 27.0352Z" fill="#009C43" stroke="#009C43" stroke-width="0.2"/>
</svg>
