<svg width="42" height="42" viewBox="0 0 42 42" fill="none" xmlns="http://www.w3.org/2000/svg">
<rect width="42" height="42" rx="8" fill="#009C43" fill-opacity="0.1"/>
<path d="M30.75 20.25H29.25V18.75C29.25 18.5511 29.171 18.3603 29.0303 18.2197C28.8897 18.079 28.6989 18 28.5 18C28.3011 18 28.1103 18.079 27.9697 18.2197C27.829 18.3603 27.75 18.5511 27.75 18.75V20.25H26.25C26.0511 20.25 25.8603 20.329 25.7197 20.4697C25.579 20.6103 25.5 20.8011 25.5 21C25.5 21.1989 25.579 21.3897 25.7197 21.5303C25.8603 21.671 26.0511 21.75 26.25 21.75H27.75V23.25C27.75 23.4489 27.829 23.6397 27.9697 23.7803C28.1103 23.921 28.3011 24 28.5 24C28.6989 24 28.8897 23.921 29.0303 23.7803C29.171 23.6397 29.25 23.4489 29.25 23.25V21.75H30.75C30.9489 21.75 31.1397 21.671 31.2803 21.5303C31.421 21.3897 31.5 21.1989 31.5 21C31.5 20.8011 31.421 20.6103 31.2803 20.4697C31.1397 20.329 30.9489 20.25 30.75 20.25Z" fill="#009C43"/>
<path d="M22.125 12C21.7196 12.0016 21.3253 12.133 21 12.375L15.5025 16.5H12.75C12.1533 16.5 11.581 16.7371 11.159 17.159C10.7371 17.581 10.5 18.1533 10.5 18.75V23.25C10.5 23.8467 10.7371 24.419 11.159 24.841C11.581 25.2629 12.1533 25.5 12.75 25.5H15.5025L21 29.625C21.3253 29.867 21.7196 29.9984 22.125 30C22.6223 30 23.0992 29.8025 23.4508 29.4508C23.8025 29.0992 24 28.6223 24 28.125V13.875C24 13.3777 23.8025 12.9008 23.4508 12.5492C23.0992 12.1975 22.6223 12 22.125 12ZM22.5 28.125C22.4951 28.1925 22.4728 28.2576 22.4352 28.3138C22.3976 28.3701 22.3459 28.4156 22.2854 28.4458C22.2249 28.4761 22.1575 28.4901 22.09 28.4864C22.0224 28.4828 21.9569 28.4616 21.9 28.425L16.2 24.15C16.0702 24.0526 15.9123 24 15.75 24H12.75C12.5511 24 12.3603 23.921 12.2197 23.7803C12.079 23.6397 12 23.4489 12 23.25V18.75C12 18.5511 12.079 18.3603 12.2197 18.2197C12.3603 18.079 12.5511 18 12.75 18H15.75C15.9123 18 16.0702 17.9474 16.2 17.85L21.9 13.575C21.9569 13.5384 22.0224 13.5172 22.09 13.5136C22.1575 13.5099 22.2249 13.5239 22.2854 13.5542C22.3459 13.5844 22.3976 13.6299 22.4352 13.6862C22.4728 13.7424 22.4951 13.8075 22.5 13.875V28.125Z" fill="#009C43"/>
</svg>
