<svg width="24" height="24" viewBox="0 0 24 24" fill="none" xmlns="http://www.w3.org/2000/svg">
<g clip-path="url(#clip0_3176_30588)">
<path fill-rule="evenodd" clip-rule="evenodd" d="M12 0C5.38331 0 0 5.38331 0 12C0 18.6167 5.38331 24 12 24C18.6167 24 24 18.6167 24 12C24 5.38331 18.6167 0 12 0ZM1.5 12C1.5 17.7898 6.21019 22.5 12 22.5C17.7898 22.5 22.5 17.7898 22.5 12C22.5 6.21019 17.7898 1.5 12 1.5C6.21019 1.5 1.5 6.21019 1.5 12Z" fill="#2C2D88"/>
<path fill-rule="evenodd" clip-rule="evenodd" d="M12 22.5C6.21019 22.5 1.5 17.7898 1.5 12C1.5 6.21019 6.21019 1.5 12 1.5C17.7898 1.5 22.5 6.21019 22.5 12C22.5 17.7898 17.7898 22.5 12 22.5ZM17.0303 12.5303C17.3233 12.2374 17.3233 11.7628 17.0303 11.4698L13.2803 7.71975C12.9874 7.42669 12.5128 7.42688 12.2197 7.71975C11.9267 8.01263 11.9267 8.48719 12.2197 8.78025L14.6895 11.25H7.5C7.08581 11.25 6.75 11.5854 6.75 12C6.75 12.4146 7.08581 12.75 7.5 12.75H14.6895L12.2197 15.2197C11.9267 15.5126 11.9267 15.9872 12.2197 16.2803C12.3662 16.4267 12.5582 16.5 12.75 16.5C12.9418 16.5 13.1338 16.4267 13.2803 16.2803L17.0303 12.5303Z" fill="#2C2D88"/>
</g>
<defs>
<clipPath id="clip0_3176_30588">
<rect width="24" height="24" fill="white"/>
</clipPath>
</defs>
</svg>
