<svg preserveAspectRatio="none" width="100%" height="100%" overflow="visible" style="display: block;" viewBox="0 0 165.519 79.9993" fill="none" xmlns="http://www.w3.org/2000/svg">
<g id="Group 2085663144">
<path id="path21" d="M79.375 78.1301V67.3195H81.5072V71.3204H83.9214V67.3195H86.0748V78.1301H83.9214V73.4253H81.5072V78.1301H79.375Z" fill="var(--fill-0, #6D6E70)"/>
<path id="path22" d="M87.7578 78.1301V67.3195H92.3054V69.3183H89.8488V71.5032H92.0783V73.4865H89.8488V76.0202H92.3054V78.1301H87.7578Z" fill="var(--fill-0, #6A757C)"/>
<path id="path23" d="M95.7358 74.5545H97.1715C97.024 73.796 96.8875 73.0082 96.7731 72.1781C96.6503 71.3528 96.5495 70.4835 96.4654 69.563C96.3506 70.3722 96.2367 71.194 96.1169 72.0244C95.9941 72.8584 95.869 73.7003 95.7358 74.5545ZM92.8555 78.1301L95.3736 67.3195H97.6305L100.029 78.1301H97.8766L97.5158 76.2304H95.3433L95.0136 78.1301H92.8555Z" fill="var(--fill-0, #6A757C)"/>
<path id="path24" d="M102.907 72.0071C102.931 72.0071 102.969 72.0104 103.029 72.014C103.085 72.0175 103.126 72.0208 103.147 72.0208C103.615 72.0208 103.972 71.8912 104.21 71.6278C104.445 71.3667 104.563 70.9805 104.563 70.473C104.563 69.9554 104.455 69.5746 104.24 69.3421C104.02 69.1048 103.671 68.9847 103.195 68.9847C103.121 68.9847 103.063 68.9883 103.024 68.9883C102.986 68.9922 102.947 68.9955 102.911 68.999L102.907 72.0071ZM100.816 78.1301V67.3195H103.06C104.295 67.3195 105.189 67.5603 105.743 68.0441C106.3 68.5275 106.579 69.3011 106.579 70.3586C106.579 71.1343 106.435 71.7512 106.15 72.2138C105.868 72.6859 105.439 73.0082 104.869 73.1958L106.941 78.1301H104.671L102.907 73.6554V78.1301H100.816Z" fill="var(--fill-0, #6A757C)"/>
<path id="path25" d="M107.867 78.1301H110.064V67.3204H107.867V78.1301Z" fill="var(--fill-0, #6A757C)"/>
<path id="path26" d="M111.871 78.1301V67.3195H114.055L116.239 73.1345C116.302 73.3263 116.396 73.6129 116.509 74.0027C116.624 74.3871 116.757 74.8429 116.907 75.364C116.793 74.6005 116.711 73.9001 116.653 73.263C116.603 72.6255 116.576 72.0276 116.576 71.474V67.3195H118.571V78.1301H116.576L114.205 72.0806C114.164 71.992 114.061 71.6248 113.892 70.974C113.815 70.6797 113.752 70.4496 113.709 70.2801C113.757 70.7035 113.793 71.1741 113.819 71.6985C113.846 72.2242 113.856 72.8515 113.856 73.5823V78.1301H111.871Z" fill="var(--fill-0, #6A757C)"/>
<path id="path27" d="M123.33 72.0217H127.348C127.348 72.0752 127.351 72.1624 127.358 72.2697C127.364 72.3791 127.365 72.4626 127.365 72.5158C127.365 74.3282 127.034 75.7306 126.371 76.742C125.707 77.7565 124.791 78.261 123.62 78.261C122.481 78.261 121.576 77.7666 120.91 76.7795C120.241 75.7922 119.91 74.4409 119.91 72.7323C119.91 71.0103 120.255 69.6522 120.943 68.6651C121.633 67.6742 122.582 67.1771 123.773 67.1771C124.582 67.1771 125.271 67.4177 125.835 67.8912C126.403 68.3628 126.814 69.0564 127.078 69.9563L125.137 70.8533C125.052 70.314 124.895 69.9106 124.658 69.6438C124.425 69.379 124.118 69.2458 123.73 69.2458C123.15 69.2458 122.73 69.5226 122.46 70.086C122.192 70.6464 122.058 71.5282 122.058 72.7323C122.058 73.8844 122.201 74.7519 122.483 75.3447C122.768 75.9387 123.182 76.2313 123.73 76.2313C124.208 76.2313 124.582 76.0315 124.849 75.631C125.121 75.2282 125.257 74.6648 125.257 73.9299H123.33L123.33 72.0217Z" fill="var(--fill-0, #6A757C)"/>
<path id="path28" d="M137.603 78.0091C137.399 78.0933 137.192 78.1566 136.98 78.2006C136.771 78.2399 136.56 78.261 136.348 78.261C134.968 78.261 133.852 77.76 132.99 76.756C132.126 75.7583 131.699 74.4442 131.699 72.8233C131.699 71.1352 132.118 69.7738 132.959 68.7317C133.801 67.6977 134.901 67.1771 136.257 67.1771C136.51 67.1771 136.746 67.2012 136.968 67.2434C137.192 67.2845 137.404 67.3511 137.603 67.437V69.4596C137.399 69.3757 137.2 69.3124 137.002 69.2764C136.807 69.2351 136.62 69.2169 136.428 69.2169C135.709 69.2169 135.125 69.5324 134.674 70.1701C134.227 70.8069 134.001 71.6513 134.001 72.7035C134.001 73.7134 134.231 74.5352 134.692 75.1616C135.152 75.7853 135.746 76.0981 136.473 76.0981C136.654 76.0981 136.843 76.0793 137.033 76.0315C137.222 75.9887 137.416 75.9289 137.603 75.8412V78.0091Z" fill="var(--fill-0, #6A757C)"/>
<path id="path29" d="M140.917 74.5545H142.351C142.205 73.796 142.07 73.0082 141.95 72.1781C141.833 71.3528 141.729 70.4835 141.641 69.563C141.53 70.3722 141.419 71.194 141.296 72.0244C141.179 72.8584 141.049 73.7003 140.917 74.5545ZM138.035 78.1301L140.553 67.3195H142.813L145.21 78.1301H143.052L142.692 76.2304H140.522L140.188 78.1301H138.035Z" fill="var(--fill-0, #6A757C)"/>
<path id="path30" d="M148.084 72.0071C148.111 72.0071 148.15 72.0104 148.209 72.014C148.261 72.0175 148.305 72.0208 148.328 72.0208C148.798 72.0208 149.151 71.8912 149.389 71.6278C149.624 71.3667 149.741 70.9805 149.741 70.473C149.741 69.9554 149.633 69.5746 149.416 69.3421C149.198 69.1048 148.854 68.9847 148.371 68.9847C148.297 68.9847 148.245 68.9883 148.204 68.9883C148.161 68.9922 148.125 68.9955 148.092 68.999L148.084 72.0071ZM146 78.1301V67.3195H148.239C149.473 67.3195 150.368 67.5603 150.925 68.0441C151.48 68.5275 151.757 69.3011 151.757 70.3586C151.757 71.1343 151.615 71.7512 151.332 72.2138C151.046 72.6859 150.619 73.0082 150.048 73.1958L152.121 78.1301H149.849L148.084 73.6554V78.1301H146Z" fill="var(--fill-0, #6A757C)"/>
<path id="path31" d="M152.953 78.1301V67.3195H157.501V69.3183H155.043V71.5032H157.27V73.4865H155.043V76.0202H157.501V78.1301H152.953Z" fill="var(--fill-0, #6A757C)"/>
<path id="path32" d="M16.5727 14.2111V19.2356C13.8731 17.5852 11.3734 16.7569 9.07195 16.7569C7.3723 16.7569 6.52289 17.3376 6.52289 18.4992C6.52289 18.7979 6.70212 19.0956 7.06009 19.3908C7.41597 19.6836 8.7886 20.3032 11.1692 21.2534C13.5521 22.1995 15.2313 23.2962 16.2141 24.5348C17.2021 25.7787 17.6926 27.135 17.6926 28.6126C17.6926 30.9482 16.8985 32.7571 15.3103 34.0248C13.7215 35.2993 11.4596 35.9329 8.52375 35.9329C5.50521 35.9329 2.82262 35.3861 0.472399 34.2879V29.3134C3.36341 30.5838 5.78523 31.2146 7.73768 31.2146C10.0231 31.2146 11.1692 30.6608 11.1692 29.5539C11.1692 29.127 10.956 28.722 10.5303 28.343C10.1081 27.9618 8.69376 27.297 6.28296 26.3561C3.87236 25.413 2.22207 24.3745 1.32983 23.2472C0.44207 22.118 0 20.8618 0 19.4815C0 17.428 0.847598 15.7625 2.55589 14.4746C4.26065 13.1827 6.51633 12.5424 9.31099 12.5424C11.9936 12.5424 14.4139 13.101 16.5727 14.2111Z" fill="var(--fill-0, #1F4292)"/>
<path id="path33" d="M69.3816 35.5509V32.3394C67.3037 34.7669 64.8801 35.9817 62.1211 35.9817C59.6764 35.9817 57.688 35.2283 56.1625 33.7201C54.6403 32.2113 53.875 30.1239 53.875 27.4573V13.0698H60.9527V26.9633C60.9527 29.8165 62.133 31.2444 64.5025 31.2444C65.8332 31.2444 66.9764 30.7233 67.9188 29.6859C68.8625 28.6477 69.3352 27.8843 69.3352 27.3872V13.0698H76.4589V35.5509H69.3816Z" fill="var(--fill-0, #1F4292)"/>
<path id="path34" d="M86.9512 13.0709V16.2601C89.0338 13.819 91.4664 12.5958 94.2628 12.5958C96.5964 12.5958 98.5494 13.3406 100.109 14.8384C101.676 16.3303 102.456 18.4691 102.456 21.2483V35.552H95.3801V21.8429C95.3801 18.836 94.2188 17.3343 91.8799 17.3343C90.2162 17.3343 88.5712 18.5711 86.9512 21.0524V35.552H79.875V13.0709H86.9512Z" fill="var(--fill-0, #1F4292)"/>
<path id="path35" d="M121.433 29.3863V18.6419C120.144 17.7676 118.826 17.3332 117.477 17.3332C115.698 17.3332 114.314 17.9516 113.32 19.1923C112.328 20.4309 111.83 22.168 111.83 24.4079C111.83 26.473 112.322 28.1284 113.31 29.3756C114.294 30.6207 115.602 31.2444 117.238 31.2444C118.685 31.2444 120.082 30.624 121.433 29.3863ZM128.502 2.28155V35.5509H121.433V33.7472C119.619 35.2355 117.543 35.9817 115.192 35.9817C112.186 35.9817 109.683 34.871 107.676 32.6453C105.666 30.4191 104.664 27.6316 104.664 24.2774C104.664 20.8444 105.682 18.0379 107.724 15.8606C109.762 13.6829 112.38 12.5947 115.572 12.5947C117.555 12.5947 119.506 13.0698 121.433 14.0212V2.28155H128.502Z" fill="var(--fill-0, #1F4292)"/>
<path id="path36" d="M147.332 14.2639V19.2859C144.633 17.6341 142.134 16.8088 139.83 16.8088C138.131 16.8088 137.282 17.3882 137.282 18.548C137.282 18.8522 137.463 19.1477 137.82 19.4414C138.177 19.7336 139.547 20.3574 141.927 21.3052C144.31 22.2521 145.993 23.345 146.975 24.5869C147.962 25.829 148.454 27.1838 148.454 28.6647C148.454 30.9998 147.657 32.8059 146.071 34.0772C144.482 35.3475 142.221 35.9817 139.28 35.9817C136.269 35.9817 133.585 35.4382 131.234 34.3367V29.3616C134.123 30.6329 136.542 31.2715 138.5 31.2715C140.784 31.2715 141.925 30.7135 141.925 29.6063C141.925 29.1793 141.715 28.7756 141.292 28.3945C140.866 28.0142 139.453 27.3512 137.04 26.4082C134.629 25.4636 132.977 24.4317 132.092 23.2989C131.202 22.1716 130.758 20.9143 130.758 19.5321C130.758 17.4804 131.608 15.8131 133.317 14.5246C135.023 13.237 137.275 12.5947 140.07 12.5947C142.75 12.5947 145.178 13.1498 147.332 14.2639Z" fill="var(--fill-0, #1F4292)"/>
<path id="path37" d="M60.6139 44.314C59.2177 44.314 58.0478 44.7977 57.0979 45.7562C56.1516 46.718 55.6804 47.8876 55.6804 49.2734C55.6804 50.5937 56.1635 51.7419 57.1422 52.7126C58.1198 53.6806 59.2807 54.164 60.6139 54.164C61.9562 54.164 63.1079 53.6571 64.0629 52.6388C65.0193 51.6221 65.4977 50.4043 65.4977 48.9829C65.4977 47.6985 65.035 46.5964 64.1089 45.6861C63.1799 44.7719 62.0162 44.314 60.6139 44.314ZM61.3262 74.9308C63.1486 74.9308 64.6266 74.5943 65.7593 73.9233C66.8897 73.2535 67.4572 72.4454 67.4572 71.5038C67.4572 69.505 65.2384 68.5079 60.8033 68.5079C58.7857 68.5079 57.2052 68.8013 56.0508 69.3858C54.8972 69.9732 54.3235 70.7576 54.3235 71.7345C54.3235 73.8665 56.657 74.9308 61.3262 74.9308ZM76.0107 39.2455V44.9788H72.1264C73.0263 46.5164 73.4756 48.0214 73.4756 49.502C73.4756 51.6122 72.6898 53.5599 71.1144 55.3482C69.5413 57.1302 67.2128 58.1904 64.1292 58.5294C61.0494 58.8656 59.3015 59.182 58.8901 59.479C58.4783 59.7759 58.2717 60.164 58.2717 60.6474C58.2717 61.124 58.5395 61.5149 59.0794 61.8125C59.6128 62.1116 61.7308 62.419 65.4275 62.7333C69.126 63.0493 71.6956 64.0194 73.1462 65.6427C74.5949 67.2636 75.3186 69.0079 75.3186 70.8705C75.3186 73.8462 74.0853 76.1115 71.6186 77.6622C69.1521 79.2203 65.5827 79.9993 60.9213 79.9993C56.1566 79.9993 52.545 79.2783 50.0886 77.84C47.6326 76.3981 46.4023 74.4902 46.4023 72.1085C46.4023 68.8084 48.8248 66.5037 53.6629 65.1982C51.4744 64.5439 50.3776 63.3641 50.3776 61.6556C50.3776 59.6567 52.0292 58.2847 55.3316 57.5385C53.1226 57.1505 51.3002 56.1887 49.8633 54.6549C48.4199 53.1208 47.6974 51.284 47.6974 49.1553C47.6974 46.5471 48.7391 44.2409 50.8117 42.2418C52.8848 40.2436 55.8983 39.2455 59.8554 39.2455H76.0107Z" fill="var(--fill-0, #1F4292)"/>
<path id="path38" d="M90.5853 58.7529C94.1099 58.7529 95.8709 56.0933 95.8709 50.7715C95.8709 45.6863 94.1099 43.1408 90.5853 43.1408C88.8975 43.1408 87.5793 43.8139 86.6273 45.1547C85.6774 46.4977 85.1991 48.4233 85.1991 50.9204C85.1991 56.1432 86.9966 58.7529 90.5853 58.7529ZM90.5853 38.752C94.2586 38.752 97.3729 39.8268 99.9264 41.9828C102.484 44.135 103.762 47.1318 103.762 50.9748C103.762 54.8326 102.462 57.8218 99.8637 59.9406C97.2673 62.0587 94.1712 63.1165 90.5853 63.1165C86.699 63.1165 83.5166 61.9891 81.0445 59.7272C78.5725 57.4671 77.3359 54.5318 77.3359 50.9204C77.3359 47.2439 78.5968 44.2991 81.1162 42.0833C83.6409 39.8607 86.7944 38.752 90.5853 38.752Z" fill="var(--fill-0, #1F4292)"/>
<path id="path39" d="M118.237 58.7529C121.761 58.7529 123.524 56.0933 123.524 50.7715C123.524 45.6863 121.761 43.1408 118.237 43.1408C116.551 43.1408 115.232 43.8139 114.284 45.1547C113.327 46.4977 112.854 48.4233 112.854 50.9204C112.854 56.1432 114.649 58.7529 118.237 58.7529ZM118.237 38.752C121.911 38.752 125.024 39.8268 127.581 41.9828C130.135 44.135 131.413 47.1318 131.413 50.9748C131.413 54.8326 130.118 57.8218 127.52 59.9406C124.92 62.0587 121.826 63.1165 118.237 63.1165C114.352 63.1165 111.17 61.9891 108.699 59.7272C106.224 57.4671 104.988 54.5318 104.988 50.9204C104.988 47.2439 106.251 44.2991 108.772 42.0833C111.294 39.8607 114.451 38.752 118.237 38.752Z" fill="var(--fill-0, #1F4292)"/>
<path id="path40" d="M150.016 56.2811V45.0893C148.677 44.1789 147.3 43.7247 145.894 43.7247C144.04 43.7247 142.598 44.3719 141.565 45.6634C140.532 46.9481 140.012 48.7625 140.012 51.0961C140.012 53.2432 140.527 54.9721 141.553 56.271C142.578 57.569 143.943 58.2162 145.646 58.2162C147.151 58.2162 148.61 57.569 150.016 56.2811ZM157.384 13.0978V62.7094H150.016V60.8251C148.125 62.3764 145.962 63.1536 143.511 63.1536C140.385 63.1536 137.778 61.9985 135.683 59.6769C133.59 57.3624 132.547 54.455 132.547 50.9575C132.547 47.3854 133.608 44.4596 135.735 42.1909C137.86 39.9219 140.581 38.7891 143.91 38.7891C145.978 38.7891 148.012 39.2829 150.016 40.2789V13.0978H157.384Z" fill="var(--fill-0, #1F4292)"/>
<path id="path41" d="M160.988 6.80201V3.5726H162.42C162.707 3.5726 162.926 3.6022 163.076 3.65986C163.226 3.7177 163.345 3.82002 163.434 3.96651C163.524 4.11329 163.568 4.27547 163.568 4.45307C163.568 4.68238 163.494 4.87566 163.346 5.03243C163.198 5.18971 162.969 5.28881 162.659 5.33178C162.773 5.38592 162.859 5.44004 162.917 5.49265C163.042 5.60699 163.16 5.75039 163.271 5.92273L163.829 6.80201H163.295L162.868 6.1302C162.744 5.9354 162.641 5.78723 162.561 5.68442C162.48 5.58144 162.408 5.50973 162.344 5.46863C162.281 5.42804 162.215 5.39927 162.149 5.38305C162.101 5.37289 162.022 5.36766 161.912 5.36766H161.417V6.80201H160.988ZM161.417 4.9978H162.334C162.529 4.9978 162.681 4.97764 162.791 4.93709C162.901 4.89717 162.984 4.83271 163.041 4.74309C163.098 4.65465 163.126 4.5584 163.126 4.4539C163.126 4.301 163.071 4.175 162.961 4.07657C162.85 3.97764 162.676 3.92895 162.438 3.92895H161.417V4.9978Z" fill="var(--fill-0, #020A08)"/>
<path id="path42" d="M19.6505 2.23178C18.6812 2.61287 17.8084 3.08236 16.9973 3.57616C19.9763 10.6484 21.7524 19.5115 21.7524 29.14C21.7524 40.148 19.4352 50.1535 15.6484 57.6242C15.6898 60.6309 16.6697 65.2166 21.9044 67.0167C30.2908 69.9009 36.8636 60.641 38.3679 55.5936C39.9603 50.2413 41.8396 45.0631 47.06 35.7871C51.2793 28.2956 51.4502 21.1323 51.4502 21.1323C52.1204 5.71143 37.5444 -4.80817 19.6505 2.23178Z" fill="var(--fill-0, #6D6E70)"/>
<path id="path46" d="M20.6916 50.4856L26.3213 37.6694C20.9686 35.3632 17.4414 30.059 17.4414 24.1512C17.4414 16.0279 24.049 9.41848 32.1738 9.41848C40.2982 9.41848 46.9098 16.0279 46.9098 24.1512C46.9098 27.5818 45.7036 30.9181 43.5172 33.5454L43.4848 33.5814L41.3112 35.7137L20.6916 50.4856Z" fill="var(--fill-0, white)"/>
<path id="path47" d="M44.2873 24.1508C44.2873 17.4632 38.8617 12.037 32.1738 12.037C25.4839 12.037 20.0625 17.4632 20.0625 24.1508C20.0625 30.1251 24.3934 35.0788 30.0876 36.0697L25.7345 44.468L39.6647 33.6779L39.6475 33.6678C42.4695 31.449 44.2873 28.0154 44.2873 24.1508Z" fill="var(--fill-0, #00A94F)"/>
<path id="path48" d="M38.969 24.3648C38.969 28.1371 35.9077 31.1985 32.1344 31.1985C28.3579 31.1985 25.3008 28.1371 25.3008 24.3648C25.3008 20.5911 28.3579 17.5303 32.1344 17.5303C35.9077 17.5303 38.969 20.5911 38.969 24.3648Z" fill="var(--fill-0, white)"/>
<path id="path51" d="M162.212 2.10115C163.934 2.10115 165.33 3.49701 165.33 5.21919C165.33 6.94131 163.934 8.33717 162.212 8.33717C160.49 8.33717 159.094 6.94131 159.094 5.21919C159.094 3.49701 160.49 2.10115 162.212 2.10115Z" stroke="var(--stroke-0, #231F20)" stroke-width="0.378" stroke-miterlimit="2.61313"/>
</g>
</svg>
