<svg width="32" height="44" viewBox="0 0 32 44" fill="none" xmlns="http://www.w3.org/2000/svg">
<path d="M26.3496 16.0693C25.9727 16.2412 25.8076 16.6865 25.9805 17.0635C26.6572 18.5381 27 20.1142 27 21.751C27 27.9541 21.9531 33.001 15.75 33.001H13.5V32.751C13.5 31.2353 12.2666 30.001 10.75 30.001H6.75C6.33594 30.001 6 30.3369 6 30.751V31.001H2.75C2.33594 31.001 2 31.3369 2 31.751C2 32.165 2.33594 32.501 2.75 32.501H6V35.001H2.75C2.33594 35.001 2 35.3369 2 35.751C2 36.165 2.33594 36.501 2.75 36.501H6V36.751C6 37.165 6.33594 37.501 6.75 37.501H10.75C12.2666 37.501 13.5 36.2666 13.5 34.751V34.501H15.75C22.7803 34.501 28.5 28.7822 28.5 21.751C28.5 19.8975 28.1113 18.1103 27.3438 16.4385C27.1699 16.0596 26.7178 15.8955 26.3496 16.0693ZM12 34.751C12 35.4404 11.4395 36.001 10.75 36.001H7.5V31.501H10.75C11.4395 31.501 12 32.0615 12 32.751V34.751Z" fill="#444444"/>
<path d="M28.75 11H25.5V8.5H28.75C29.1641 8.5 29.5 8.16406 29.5 7.75C29.5 7.33594 29.1641 7 28.75 7H25.5V6.75C25.5 6.33594 25.1641 6 24.75 6H20.75C19.2334 6 18 7.23438 18 8.75V9H15.75C8.71973 9 3 14.7188 3 21.75C3 23.6035 3.38867 25.3906 4.15625 27.0625C4.28223 27.3379 4.55469 27.5 4.83789 27.5C4.94336 27.5 5.0498 27.4785 5.15039 27.4316C5.52734 27.2598 5.69238 26.8145 5.51953 26.4375C4.84277 24.9629 4.5 23.3867 4.5 21.75C4.5 15.5469 9.54688 10.5 15.75 10.5H18V10.75C18 12.2656 19.2334 13.5 20.75 13.5H24.75C25.1641 13.5 25.5 13.1641 25.5 12.75V12.5H28.75C29.1641 12.5 29.5 12.1641 29.5 11.75C29.5 11.3359 29.1641 11 28.75 11ZM24 12H20.75C20.0605 12 19.5 11.4395 19.5 10.75V8.75C19.5 8.06055 20.0605 7.5 20.75 7.5H24V12Z" fill="#444444"/>
<path d="M10.7497 23.5009H13.614L14.5095 28.874C14.5603 29.1767 14.7888 29.417 15.0866 29.4834C15.1413 29.4951 15.196 29.5009 15.2497 29.5009C15.4929 29.5009 15.7263 29.3818 15.8679 29.1767L21.3679 21.1767C21.5251 20.9463 21.5427 20.6474 21.4138 20.4013C21.2839 20.1552 21.0281 20.0009 20.7497 20.0009H17.8855L16.99 14.6279C16.9392 14.3252 16.7107 14.0849 16.4128 14.0185C16.1081 13.9502 15.8034 14.0752 15.6316 14.3252L10.1316 22.3252C9.97434 22.5556 9.95676 22.8545 10.0857 23.1006C10.2156 23.3466 10.4714 23.5009 10.7497 23.5009ZM15.8152 16.706L16.5095 20.874C16.57 21.2353 16.8835 21.5009 17.2497 21.5009H19.324L15.6843 26.7959L14.99 22.6279C14.9294 22.2666 14.6159 22.0009 14.2497 22.0009H12.1755L15.8152 16.706Z" fill="#444444"/>
</svg>
