<svg width="32" height="40" viewBox="0 0 32 40" fill="none" xmlns="http://www.w3.org/2000/svg">
<g clip-path="url(#clip0_2996_31987)">
<path d="M16.6096 32.6565C16.954 32.9658 17.3821 33.1264 17.8187 33.1264C18.07 33.1264 18.3237 33.0734 18.5664 32.9654C19.2312 32.6693 19.6448 32.0327 19.6448 31.3042V8.69521C19.6448 7.96676 19.2312 7.33016 18.5664 7.03408C17.9016 6.738 17.1522 6.85549 16.6096 7.34298L10.8367 12.5387H4.74457C3.74181 12.5387 2.92578 13.3548 2.92578 14.3575V25.6419C2.92578 26.6447 3.74182 27.4607 4.74457 27.4607H10.8367L16.6096 32.6565ZM4.67578 25.6419V14.3575C4.67578 14.3195 4.70655 14.2887 4.74457 14.2887H11.1725C11.3887 14.2887 11.5972 14.2088 11.7578 14.064L17.7803 8.64394V31.3555L11.7578 25.9354C11.5972 25.7906 11.3887 25.7107 11.1725 25.7107H4.74457C4.70654 25.7107 4.67578 25.68 4.67578 25.6419Z" fill="#444444"/>
<path d="M25.6505 33.125C26.1342 33.125 26.5255 32.7332 26.5255 32.25V30.2208C27.988 29.8313 29.0745 28.5081 29.0745 26.9244C29.0745 25.3407 27.988 24.0175 26.5255 23.628V7.75C26.5255 7.26678 26.1342 6.875 25.6505 6.875C25.1669 6.875 24.7755 7.26678 24.7755 7.75V23.628C23.313 24.0175 22.2266 25.3407 22.2266 26.9244C22.2266 28.5081 23.313 29.8312 24.7755 30.2208V32.25C24.7755 32.7332 25.1669 33.125 25.6505 33.125ZM23.9766 26.9244C23.9766 26.0015 24.7277 25.2504 25.6505 25.2504C26.5734 25.2504 27.3245 26.0015 27.3245 26.9244C27.3245 27.8472 26.5734 28.5983 25.6505 28.5983C24.7277 28.5983 23.9766 27.8472 23.9766 26.9244Z" fill="#444444"/>
</g>
<defs>
<clipPath id="clip0_2996_31987">
<rect width="28" height="28" fill="white" transform="translate(2 6)"/>
</clipPath>
</defs>
</svg>
