<svg width="26" height="40" viewBox="0 0 26 40" fill="none" xmlns="http://www.w3.org/2000/svg">
<path d="M11.2246 8.31445C12.4774 8.31466 13.4968 9.33321 13.4971 10.5859V14.6367C13.8247 14.4533 14.2022 14.3486 14.6035 14.3486C15.5371 14.3487 16.3392 14.9146 16.6885 15.7207C17.056 15.465 17.5018 15.3135 17.9824 15.3135C18.9882 15.3135 19.8412 15.9711 20.1396 16.8779C20.4927 16.6518 20.9128 16.5205 21.3623 16.5205C22.6152 16.5208 23.6338 17.5401 23.6338 18.793V25.4707C23.6338 30.2285 19.7637 34.0994 15.0059 34.0996C11.9334 34.0996 9.06981 32.4468 7.5332 29.7861L2.07617 20.3359C1.9017 20.0338 1.85506 19.6808 1.94531 19.3438C2.03565 19.007 2.25185 18.7252 2.55371 18.5508C4.09995 17.6581 6.08381 18.1893 6.97656 19.7354L8.42578 22.2441C8.49955 22.372 8.65515 22.4216 8.78906 22.3594C8.88787 22.3132 8.95206 22.2125 8.95215 22.1035V10.5859C8.95239 9.33308 9.9717 8.31445 11.2246 8.31445ZM11.2246 9.47949C10.6145 9.47949 10.1174 9.97591 10.1172 10.5859V22.1035C10.1171 22.6645 9.78891 23.1794 9.28027 23.416C8.59563 23.7344 7.79365 23.4811 7.41602 22.8271L5.96777 20.3184C5.69093 19.8388 5.24384 19.4958 4.70898 19.3525C4.5304 19.3047 4.34871 19.2812 4.16895 19.2812C3.81036 19.2813 3.45619 19.3751 3.13672 19.5596C3.09304 19.5848 3.07721 19.6236 3.07129 19.6455C3.06546 19.6672 3.05963 19.7091 3.08496 19.7529L8.54297 29.2031C9.87198 31.5042 12.3486 32.9336 15.0059 32.9336C19.121 32.9335 22.4687 29.5858 22.4688 25.4707V18.793C22.4687 18.1828 21.9724 17.6866 21.3623 17.6865C20.7521 17.6865 20.2549 18.1827 20.2549 18.793V19.7588C20.2547 20.0804 19.9944 20.3406 19.6729 20.3408C19.3511 20.3408 19.09 20.0805 19.0898 19.7588V17.5859C19.0897 16.9758 18.5926 16.4795 17.9824 16.4795C17.3725 16.4797 16.8761 16.9759 16.876 17.5859V19.5166C16.876 19.8385 16.6148 20.0996 16.293 20.0996C15.9712 20.0995 15.7109 19.8383 15.7109 19.5166V16.6211C15.7109 16.0109 15.2138 15.5137 14.6035 15.5137C13.9933 15.5137 13.4971 16.0109 13.4971 16.6211V19.5166C13.4971 19.8385 13.2359 20.0996 12.9141 20.0996C12.5922 20.0996 12.3311 19.8384 12.3311 19.5166V10.5859C12.3308 9.97598 11.8346 9.47961 11.2246 9.47949Z" fill="#444444" stroke="#444444" stroke-width="0.2"/>
<path d="M11.2266 5.90039C13.8105 5.90039 15.913 8.00199 15.9131 10.5859C15.9131 11.4251 15.6879 12.2487 15.2627 12.9678C15.1538 13.1519 14.9597 13.2549 14.7607 13.2549C14.6598 13.2549 14.5578 13.2278 14.4648 13.1729C14.1878 13.0091 14.096 12.652 14.2598 12.375C14.5787 11.8356 14.7471 11.2168 14.7471 10.5859C14.747 8.64481 13.1677 7.06543 11.2266 7.06543C9.28547 7.06549 7.70611 8.64484 7.70605 10.5859C7.70605 11.2145 7.87383 11.8313 8.19043 12.3691C8.35352 12.6464 8.26074 13.0038 7.9834 13.167C7.7062 13.3301 7.34885 13.2372 7.18555 12.96C6.76353 12.2429 6.54102 11.4219 6.54102 10.5859C6.54107 8.00202 8.64265 5.90045 11.2266 5.90039Z" fill="#444444" stroke="#444444" stroke-width="0.2"/>
</svg>
