<svg width="32" height="40" viewBox="0 0 32 40" fill="none" xmlns="http://www.w3.org/2000/svg">
<g clip-path="url(#clip0_2996_32018)">
<path d="M15.9893 15.1973C16.3531 15.1975 16.6484 15.4926 16.6484 15.8564V24.124C16.6484 24.4879 16.3531 24.783 15.9893 24.7832C15.6252 24.7832 15.3301 24.4881 15.3301 24.124V15.8564C15.3301 15.4924 15.6252 15.1973 15.9893 15.1973Z" fill="#444444" stroke="#444444" stroke-width="0.2"/>
<path d="M12.8721 17.3145C13.2359 17.3147 13.5312 17.6097 13.5312 17.9736V22.0039C13.5312 22.3678 13.2359 22.6629 12.8721 22.6631C12.508 22.6631 12.2129 22.3679 12.2129 22.0039V17.9736C12.2129 17.6096 12.508 17.3145 12.8721 17.3145Z" fill="#444444" stroke="#444444" stroke-width="0.2"/>
<path d="M9.7627 15.1973C10.1265 15.1975 10.4219 15.4926 10.4219 15.8564V24.124C10.4219 24.4879 10.1265 24.783 9.7627 24.7832C9.39867 24.7832 9.10352 24.4881 9.10352 24.124V15.8564C9.10352 15.4924 9.39867 15.1973 9.7627 15.1973Z" fill="#444444" stroke="#444444" stroke-width="0.2"/>
<path d="M22.2119 15.1973C22.5757 15.1975 22.8711 15.4926 22.8711 15.8564V24.124C22.8711 24.4879 22.5757 24.783 22.2119 24.7832C21.8479 24.7832 21.5527 24.4881 21.5527 24.124V15.8564C21.5527 15.4924 21.8479 15.1973 22.2119 15.1973Z" fill="#444444" stroke="#444444" stroke-width="0.2"/>
<path d="M19.1025 17.3145C19.4664 17.3147 19.7617 17.6097 19.7617 17.9736V22.0039C19.7617 22.3678 19.4664 22.6629 19.1025 22.6631C18.7385 22.6631 18.4434 22.3679 18.4434 22.0039V17.9736C18.4434 17.6096 18.7385 17.3145 19.1025 17.3145Z" fill="#444444" stroke="#444444" stroke-width="0.2"/>
<path d="M6.7168 10.7139C11.5993 5.62917 20.3751 5.62845 25.2578 10.7139C30.1697 15.4289 30.3648 23.8363 25.7139 28.7822L28.9062 31.9746C29.3202 32.3855 29.0249 33.1023 28.4414 33.1006H15.9873C12.485 33.1005 9.19134 31.7363 6.71484 29.2598V29.2588C1.6284 24.3753 1.62792 15.5961 6.7168 10.7139ZM15.9912 8.19336C0.33749 8.84344 0.346937 31.1373 15.9922 31.7822H26.8496L24.3281 29.2598C24.0707 29.0023 24.0707 28.5846 24.3281 28.3271L24.666 27.9795C31.5616 20.5913 26.2535 8.17125 15.9912 8.19336Z" fill="#444444" stroke="#444444" stroke-width="0.2"/>
</g>
<defs>
<clipPath id="clip0_2996_32018">
<rect width="28" height="28" fill="white" transform="translate(2 6)"/>
</clipPath>
</defs>
</svg>
