<svg width="33" height="40" viewBox="0 0 33 40" fill="none" xmlns="http://www.w3.org/2000/svg">
<g clip-path="url(#clip0_2996_32027)">
<path d="M18.127 13.9248L9.70703 19.7939L9.59375 19.873L9.70508 19.9561L18.0986 26.2236L7.45703 33.9307V21.3623L7.2998 21.4717L3.08789 24.4053L2.1416 23.1377L6.77539 19.9092L6.88867 19.8301L6.77734 19.7471L2.30273 16.4053L3.29297 15.1689L7.29688 18.1592L7.45703 18.2793V6.19629L18.127 13.9248ZM9.08008 30.8018L9.23926 30.6865L15.3164 26.2861L15.4258 26.2061L15.3174 26.125L9.24023 21.5859L9.08008 21.4668V30.8018ZM9.0791 18.3027L9.23633 18.1934L15.2803 13.9814L15.3955 13.9004L15.2812 13.8184L9.23828 9.44043L9.0791 9.32617V18.3027Z" fill="#444444" stroke="white" stroke-width="0.2"/>
<path d="M30.9219 11.3828V30.5527H20.1816V11.3828H30.9219ZM21.8057 28.9912H29.2988V12.9443H21.8057V28.9912Z" fill="#444444" stroke="white" stroke-width="0.2"/>
<path d="M28.2903 12.1638H26.467V9.52256H24.6436V12.1638H22.8203V7.76172H28.2903V12.1638Z" fill="#444444"/>
<path d="M27.2773 25.4707V27.0322H23.8301V25.4707H27.2773Z" fill="#444444" stroke="white" stroke-width="0.2"/>
<path d="M27.2773 21.9473V23.5088H23.8301V21.9473H27.2773Z" fill="#444444" stroke="white" stroke-width="0.2"/>
<path d="M27.2773 18.4219V19.9834H23.8301V18.4219H27.2773Z" fill="#444444" stroke="white" stroke-width="0.2"/>
</g>
<defs>
<clipPath id="clip0_2996_32027">
<rect width="29" height="28" fill="white" transform="translate(2 6)"/>
</clipPath>
</defs>
</svg>
