<svg width="32" height="40" viewBox="0 0 32 40" fill="none" xmlns="http://www.w3.org/2000/svg">
<g clip-path="url(#clip0_2996_32008)">
<path d="M29.5148 23.026L27.9857 22.1431C26.3363 21.1907 26.3349 18.8099 27.9857 17.8569L29.5148 16.974C29.9071 16.7474 30.0414 16.2458 29.815 15.8536L26.5205 10.1466C26.2943 9.75464 25.7923 9.61984 25.3998 9.84628L23.8707 10.7292C22.2215 11.6813 20.1594 10.4927 20.1594 8.58612V6.82031C20.1594 6.36722 19.7922 6 19.3391 6H12.7499C12.297 6 11.9296 6.36722 11.9296 6.82031V8.58612C11.9296 10.4908 9.86943 11.6824 8.21834 10.7292L6.68922 9.84628C6.29723 9.61984 5.79521 9.75421 5.56856 10.1466L2.27406 15.8536C2.04762 16.2458 2.18199 16.7476 2.5742 16.974L4.10332 17.8569C5.7527 18.8093 5.7542 21.1901 4.10332 22.1431L2.57442 23.026C2.18199 23.2526 2.04762 23.7542 2.27406 24.1464L5.56856 29.8534C5.79478 30.2454 6.2968 30.3804 6.68922 30.1537L8.21834 29.2708C9.86729 28.3185 11.9296 29.5071 11.9296 31.4139V33.1797C11.9296 33.6328 12.2968 34 12.7499 34H19.3389C19.792 34 20.1592 33.6328 20.1592 33.1797V31.4139C20.1592 29.5096 22.2194 28.3174 23.8707 29.2708L25.3998 30.1537C25.7918 30.3802 26.2938 30.2458 26.5203 29.8534L29.815 24.1464C30.0414 23.7542 29.9071 23.2526 29.5148 23.026ZM25.5096 28.3228L24.691 27.85C21.9479 26.266 18.5188 28.2435 18.5188 31.4139V32.3594H13.5702V31.4139C13.5702 28.2463 10.1433 26.2647 7.39803 27.85L6.57942 28.3228L4.10503 24.0366L4.92363 23.5639C7.66655 21.9803 7.66933 18.0214 4.92384 16.4361L4.10503 15.9634L6.57942 11.6772L7.39803 12.15C10.1412 13.734 13.5702 11.7565 13.5702 8.58612V7.64062H18.5188V8.58612C18.5188 11.7537 21.9455 13.7353 24.691 12.15L25.5096 11.6772L27.984 15.9634L27.1654 16.4361C24.4225 18.0197 24.4197 21.9786 27.1652 23.5639L27.984 24.0366L25.5096 28.3228Z" fill="#444444"/>
<path d="M16.0464 14.2578C12.8803 14.2578 10.3047 16.8337 10.3047 20C10.3047 23.1663 12.8803 25.7422 16.0464 25.7422C19.2123 25.7422 21.788 23.1663 21.788 20C21.788 16.8337 19.2123 14.2578 16.0464 14.2578ZM16.0464 24.1016C13.785 24.1016 11.9453 22.2616 11.9453 20C11.9453 17.7384 13.785 15.8984 16.0464 15.8984C18.3076 15.8984 20.1474 17.7384 20.1474 20C20.1474 22.2616 18.3076 24.1016 16.0464 24.1016Z" fill="#444444"/>
</g>
<defs>
<clipPath id="clip0_2996_32008">
<rect width="28" height="28" fill="white" transform="translate(2 6)"/>
</clipPath>
</defs>
</svg>
