<svg width="52" height="52" viewBox="0 0 52 52" fill="none" xmlns="http://www.w3.org/2000/svg">
<rect x="0.5" y="0.5" width="51" height="51" rx="9.5" fill="white"/>
<rect x="0.5" y="0.5" width="51" height="51" rx="9.5" stroke="#DDDDDD"/>
<path d="M35.8477 23.5743H35.7784V21.8762C35.7784 16.4217 31.3567 12 25.9022 12C20.4476 12 16.0259 16.4217 16.0259 21.8762V23.5743H15.6101C14.0854 23.5743 12.9072 24.9257 12.9072 26.4852V30.8168C12.8687 32.3283 14.0629 33.5847 15.5744 33.6231C15.5863 33.6234 15.5982 33.6236 15.6101 33.6237H18.1745C18.5377 33.6067 18.8183 33.2983 18.8012 32.9351C18.8006 32.922 18.7996 32.909 18.7982 32.896V24.4059C18.7982 23.9901 18.5557 23.5742 18.1745 23.5742H17.4121V21.8762C17.4121 17.1872 21.2132 13.3861 25.9022 13.3861C30.5911 13.3861 34.3923 17.1872 34.3923 21.8762V23.5742H33.6299C33.2487 23.5742 33.0061 23.99 33.0061 24.4059V32.896C32.9675 33.2575 33.2292 33.582 33.5907 33.6207C33.6037 33.6221 33.6168 33.6231 33.6299 33.6237H34.4269L34.3576 33.7276C33.3177 35.1096 31.686 35.919 29.9566 35.9108C29.578 34.0543 27.766 32.8562 25.9095 33.2349C24.3219 33.5586 23.1773 34.949 23.1645 36.5692C23.1835 38.4695 24.7295 40 26.6299 39.9999C27.5706 39.9846 28.4673 39.5986 29.1249 38.9256C29.5686 38.4713 29.8593 37.8897 29.9566 37.2622C32.1224 37.2704 34.1648 36.2556 35.4665 34.5246L36.1249 33.5543C37.615 33.4504 38.5506 32.5147 38.5506 31.1632V26.8315C38.5507 25.3416 37.4418 23.5743 35.8477 23.5743ZM17.4121 32.2376H15.6101C14.8639 32.2194 14.2737 31.5998 14.2919 30.8536C14.2922 30.8414 14.2927 30.8291 14.2933 30.8168V26.4851C14.2933 25.6881 14.8477 24.9603 15.6101 24.9603H17.4121V32.2376ZM28.12 37.9554C27.736 38.3718 27.1964 38.6103 26.6299 38.6139C25.5025 38.5959 24.5875 37.6963 24.5507 36.5693C24.5503 35.4401 25.4653 34.5244 26.5944 34.5239C27.7236 34.5234 28.6394 35.4384 28.6398 36.5676C28.6398 36.5681 28.6398 36.5687 28.6398 36.5693C28.6687 37.0838 28.48 37.5868 28.12 37.9554ZM37.1645 31.1633C37.1645 32.099 36.2635 32.2376 35.8477 32.2376H34.3923V24.9604H35.8477C36.6101 24.9604 37.1645 26.0347 37.1645 26.8317V31.1633Z" fill="#009C43"/>
</svg>
