<svg width="52" height="52" viewBox="0 0 52 52" fill="none" xmlns="http://www.w3.org/2000/svg">
<rect x="0.5" y="0.5" width="51" height="51" rx="9.5" fill="white"/>
<rect x="0.5" y="0.5" width="51" height="51" rx="9.5" stroke="#DDDDDD"/>
<g clip-path="url(#clip0_2764_78816)">
<path d="M39.7266 14.7032C39.7266 13.2126 38.5139 12 37.0234 12H18.1953V13.6406C18.7812 13.6406 19.2578 14.1173 19.2578 14.7031V19.7487L16.9309 22.0756C15.933 23.0735 15.1767 24.3098 14.7438 25.6509C14.3682 26.8142 14.2325 28.0619 14.3462 29.2841L11.7266 31.9038L19.8228 40L22.4425 37.3803C22.7245 37.4067 23.0085 37.42 23.2908 37.42H23.291C25.6999 37.42 27.9587 36.488 29.6508 34.7957L31.9777 32.4688H39.7266V14.7032ZM28.4906 33.6355C27.1083 35.018 25.2616 35.7794 23.2908 35.7793C22.9458 35.7793 22.5979 35.7551 22.2568 35.7073L21.852 35.6506L19.8228 37.6798L14.0467 31.9038L16.0759 29.8747L16.0191 29.4699C15.6942 27.1496 16.4493 24.8774 18.091 23.2358L23.1622 18.1646L23.615 18.6173C23.8017 18.8041 23.9046 19.0524 23.9046 19.3165C23.9046 19.5332 23.8343 19.7388 23.7062 19.909L20.8145 22.8006L21.9746 23.9607L29.256 16.6949C29.5737 16.3772 30.0904 16.3773 30.4079 16.6948C30.7255 17.0124 30.7254 17.5292 30.4079 17.8468L24.6803 23.5743L25.8404 24.7344L33.2616 17.3131C33.5793 16.9955 34.096 16.9954 34.4135 17.313C34.7311 17.6306 34.7311 18.1474 34.4136 18.465L26.9924 25.8862L26.9924 25.8862L28.1525 27.0463L33.88 21.3189C34.1975 21.0012 34.7143 21.0012 35.0319 21.3187C35.3494 21.6364 35.3494 22.1532 35.0319 22.4707L28.5309 28.9717L29.691 30.1318L34.1618 25.661C34.3144 25.5084 34.5189 25.4244 34.7378 25.4244C34.9566 25.4244 35.1611 25.5084 35.3136 25.6609C35.6312 25.9786 35.6312 26.4953 35.3136 26.8129L28.4906 33.6355ZM38.0859 30.8281H33.6184L36.4737 27.973C37.4309 27.0158 37.4309 25.4583 36.4738 24.5009C36.272 24.299 36.0432 24.1402 35.7992 24.0235L36.1919 23.6308C37.1491 22.6737 37.1492 21.1161 36.1921 20.1587C35.9901 19.9569 35.7614 19.7981 35.5174 19.6814L35.5737 19.6251C36.5308 18.6679 36.5308 17.1103 35.5737 16.153C34.6165 15.1958 33.0588 15.1956 32.1015 16.1531L32.0453 16.2094C31.9286 15.9654 31.7699 15.7366 31.568 15.5347C30.6108 14.5775 29.0531 14.5775 28.0959 15.5348L25.3385 18.2921C25.2082 17.984 25.0186 17.7008 24.775 17.4572L23.1622 15.8443L20.8984 18.1081V14.7031C20.8984 14.3261 20.8208 13.9669 20.6808 13.6406H37.0234C37.6093 13.6406 38.0859 14.1173 38.0859 14.7032V30.8281Z" fill="#009C43"/>
</g>
<defs>
<clipPath id="clip0_2764_78816">
<rect width="28" height="28" fill="white" transform="translate(11.7266 12)"/>
</clipPath>
</defs>
</svg>
