<svg width="52" height="52" viewBox="0 0 52 52" fill="none" xmlns="http://www.w3.org/2000/svg">
<rect x="0.5" y="0.5" width="51" height="51" rx="9.5" fill="white"/>
<rect x="0.5" y="0.5" width="51" height="51" rx="9.5" stroke="#DDDDDD"/>
<path d="M34.6267 25.7545C34.5946 25.5569 34.4654 25.3886 34.2817 25.3069L28.9256 22.9238L31.9482 15.8263C32.0593 15.5651 31.9699 15.2614 31.7353 15.1022C31.5 14.943 31.1851 14.9723 30.984 15.1727L21.3602 24.7344C21.2142 24.8796 21.1535 25.0898 21.2003 25.2902C21.2471 25.4905 21.3944 25.6525 21.5899 25.7182L26.7673 27.4505L21.2673 36.7412C21.1179 36.994 21.1716 37.3236 21.4035 37.5037C21.6618 37.7048 21.9607 37.6894 22.1778 37.4814L34.4402 26.2872C34.589 26.1532 34.6588 25.9521 34.6267 25.7545ZM24.3144 33.9253L28.1631 27.4233C28.2546 27.269 28.2713 27.0818 28.2085 26.9136C28.1456 26.7453 28.0109 26.6147 27.8405 26.5582L22.8795 24.8977L29.6664 18.1549L27.6052 22.9957C27.4781 23.2939 27.6136 23.6388 27.9103 23.7708L32.9711 26.0226L24.3144 33.9253Z" fill="#009C43"/>
<path d="M38.4038 19.3145H31.7509C31.4235 19.3145 31.1574 19.5805 31.1574 19.908C31.1574 20.2354 31.4235 20.5015 31.7509 20.5015H38.4038C38.9044 20.5015 39.1746 20.7493 39.1746 20.8506V31.7857C39.1746 31.8869 38.9044 32.1348 38.4038 32.1348H29.2771C28.9496 32.1348 28.6836 32.4008 28.6836 32.7283C28.6836 33.0558 28.9496 33.3218 29.2771 33.3218H38.4044C39.5021 33.3218 40.3623 32.6473 40.3623 31.7857V20.8506C40.3616 19.9889 39.5014 19.3145 38.4038 19.3145Z" fill="#009C43"/>
<path d="M22.8194 32.7283C22.8194 32.4008 22.5534 32.1348 22.2259 32.1348H17.8067C17.3061 32.1348 17.0359 31.8869 17.0359 31.7857V20.8506C17.0359 20.7493 17.3061 20.5015 17.8067 20.5015H24.5126C24.8401 20.5015 25.1061 20.2354 25.1061 19.908C25.1061 19.5805 24.8401 19.3145 24.5126 19.3145H17.8067C16.7091 19.3145 15.8489 19.9889 15.8489 20.8506V23.0835H12.9568C12.6293 23.0835 12.3633 23.3496 12.3633 23.677V28.9592C12.3633 29.2867 12.6293 29.5527 12.9568 29.5527H15.8496V31.7857C15.8496 32.6473 16.7091 33.3218 17.8074 33.3218H22.2266C22.554 33.3218 22.8194 33.0558 22.8194 32.7283ZM13.5503 28.365V24.2698H15.8496V28.365H13.5503Z" fill="#009C43"/>
</svg>
