<svg width="60" height="60" viewBox="0 0 60 60" fill="none" xmlns="http://www.w3.org/2000/svg">
<g filter="url(#filter0_d_3280_48782)">
<rect x="4" width="52" height="52" rx="26" fill="white"/>
<g clip-path="url(#clip0_3280_48782)">
<path d="M30.0001 31.0001C27.243 31.0001 25 28.7571 25 26.0001C25 23.243 27.243 21 30.0001 21C32.7571 21 35.0001 23.243 35.0001 26.0001C35.0001 28.7571 32.7571 31.0001 30.0001 31.0001ZM30.0001 22.5C28.0701 22.5 26.5 24.0701 26.5 26.0001C26.5 27.93 28.0701 29.5001 30.0001 29.5001C31.93 29.5001 33.5001 27.93 33.5001 26.0001C33.5001 24.0701 31.93 22.5 30.0001 22.5Z" fill="#009C43"/>
<path d="M29.9999 35.9999C24.4859 35.9999 20 31.514 20 25.9999C20 20.4859 24.4859 16 29.9999 16C35.514 16 39.9999 20.4859 39.9999 25.9999C39.9999 31.514 35.514 35.9999 29.9999 35.9999ZM29.9999 17.5C25.313 17.5 21.5 21.313 21.5 25.9999C21.5 30.6869 25.313 34.4999 29.9999 34.4999C34.6869 34.4999 38.4999 30.6869 38.4999 25.9999C38.4999 21.313 34.6869 17.5 29.9999 17.5Z" fill="#009C43"/>
<path d="M30 19.0001C29.586 19.0001 29.25 18.6641 29.25 18.2501V14.75C29.25 14.336 29.586 14 30 14C30.414 14 30.75 14.336 30.75 14.75V18.2501C30.75 18.6641 30.414 19.0001 30 19.0001Z" fill="#009C43"/>
<path d="M30 38.0001C29.586 38.0001 29.25 37.6641 29.25 37.2501V33.75C29.25 33.336 29.586 33 30 33C30.414 33 30.75 33.336 30.75 33.75V37.2501C30.75 37.6641 30.414 38.0001 30 38.0001Z" fill="#009C43"/>
<path d="M22.2501 26.75H18.75C18.336 26.75 18 26.414 18 26C18 25.586 18.336 25.25 18.75 25.25H22.2501C22.6641 25.25 23.0001 25.586 23.0001 26C23.0001 26.414 22.6641 26.75 22.2501 26.75Z" fill="#009C43"/>
<path d="M41.2501 26.75H37.75C37.336 26.75 37 26.414 37 26C37 25.586 37.336 25.25 37.75 25.25H41.2501C41.6641 25.25 42.0001 25.586 42.0001 26C42.0001 26.414 41.6641 26.75 41.2501 26.75Z" fill="#009C43"/>
</g>
</g>
<defs>
<filter id="filter0_d_3280_48782" x="0" y="0" width="60" height="60" filterUnits="userSpaceOnUse" color-interpolation-filters="sRGB">
<feFlood flood-opacity="0" result="BackgroundImageFix"/>
<feColorMatrix in="SourceAlpha" type="matrix" values="0 0 0 0 0 0 0 0 0 0 0 0 0 0 0 0 0 0 127 0" result="hardAlpha"/>
<feOffset dy="4"/>
<feGaussianBlur stdDeviation="2"/>
<feComposite in2="hardAlpha" operator="out"/>
<feColorMatrix type="matrix" values="0 0 0 0 0 0 0 0 0 0 0 0 0 0 0 0 0 0 0.25 0"/>
<feBlend mode="normal" in2="BackgroundImageFix" result="effect1_dropShadow_3280_48782"/>
<feBlend mode="normal" in="SourceGraphic" in2="effect1_dropShadow_3280_48782" result="shape"/>
</filter>
<clipPath id="clip0_3280_48782">
<rect width="24" height="24" fill="white" transform="translate(18 14)"/>
</clipPath>
</defs>
</svg>
