<svg width="100" height="100" viewBox="0 0 100 100" fill="none" xmlns="http://www.w3.org/2000/svg">
<circle cx="50" cy="50" r="50" fill="white"/>
<g clip-path="url(#clip0_2974_39704)">
<path d="M42.9524 61.9531C42.9264 61.9531 42.9004 61.9531 42.8744 61.9531C42.2624 61.949 41.6656 61.7614 41.1615 61.4144C40.6573 61.0674 40.2689 60.577 40.0465 60.0068C39.5151 58.7267 39.6065 56.6714 41.4562 54.7446C42.5644 53.5904 43.7153 51.8545 43.6215 50.4436C43.5989 50.1288 43.5075 49.8227 43.3537 49.5471C43.1999 49.2714 42.9875 49.0329 42.7314 48.8483C42.1514 48.4104 41.6409 47.8874 41.2173 47.2968C40.3556 46.0813 39.8145 44.6681 39.6441 43.1879C39.4736 41.7077 39.6794 40.2085 40.2423 38.8289C40.2496 38.805 40.285 38.7209 40.2947 38.7026C40.6037 37.9799 40.9866 37.2912 41.4375 36.6474C43.89 33.1098 46.9885 32.1786 49.1563 32.019C52.1458 31.8 55.2797 32.9375 57.1354 34.9188C60.9611 39.0044 60.2095 45.5617 55.1732 52.0313C55.1159 52.1049 55.0446 52.1666 54.9634 52.2127C54.8822 52.2588 54.7927 52.2885 54.7001 52.3001C54.6074 52.3116 54.5134 52.3048 54.4234 52.28C54.3334 52.2552 54.2491 52.2129 54.1755 52.1556C54.1018 52.0982 54.0401 52.0269 53.994 51.9457C53.9479 51.8646 53.9182 51.7751 53.9067 51.6824C53.8951 51.5898 53.9019 51.4958 53.9267 51.4058C53.9515 51.3157 53.9938 51.2315 54.0512 51.1578C58.6268 45.2798 59.4112 39.4294 56.0978 35.8909C54.808 34.5138 52.1934 33.2186 49.2586 33.436C47.3996 33.5725 44.7371 34.3805 42.6047 37.4578C42.4151 37.7308 42.2446 38.0006 42.0932 38.2671C43.5439 38.2746 44.9676 38.6597 46.2242 39.3847C47.4808 40.1096 48.5268 41.1494 49.2594 42.4015C51.9517 46.8889 51.5279 53.1212 48.2946 56.5898C47.8445 57.0778 47.4947 57.6495 47.2652 58.2725C46.369 60.6486 44.8394 61.9531 42.9524 61.9531ZM41.4286 39.6999C41.0242 40.8243 40.9002 42.0303 41.0674 43.2134C41.2347 44.3965 41.688 45.521 42.3881 46.4892C42.7335 46.9638 43.1482 47.384 43.6183 47.7356C44.03 48.0425 44.3703 48.4351 44.6157 48.8862C44.8612 49.3372 45.006 49.8362 45.0401 50.3486C45.1965 52.7048 43.1218 55.0611 42.4808 55.7285C41.1052 57.161 40.9988 58.5958 41.3579 59.4612C41.4759 59.7748 41.6867 60.0452 41.9621 60.2362C42.2374 60.4273 42.5644 60.53 42.8996 60.5308H42.9488C44.553 60.5308 45.4565 59.033 45.9331 57.7683C46.228 56.9718 46.6766 56.2411 47.2534 55.6176C50.0772 52.5882 50.4221 47.1034 48.0387 43.1307C47.3605 42.0049 46.3841 41.0885 45.2175 40.483C44.0509 39.8776 42.7396 39.6065 41.4286 39.6999Z" fill="black"/>
</g>
<path d="M43.9033 73.8684C38.0773 73.8684 34.8691 70.6278 34.8691 64.7436C34.8691 64.5551 34.944 64.3742 35.0774 64.2409C35.2107 64.1076 35.3915 64.0327 35.5801 64.0327C35.7686 64.0327 35.9495 64.1076 36.0828 64.2409C36.2161 64.3742 36.291 64.5551 36.291 64.7436C36.291 69.8551 38.8504 72.4465 43.9033 72.4465C49.1817 72.4465 50.643 69.0706 52.8542 63.96C54.1441 60.9793 55.6062 57.6013 58.1761 54.2729C65.4886 44.8093 63.9826 38.1119 62.4352 34.9618C60.1911 30.3936 55.1678 27.5559 49.3259 27.5559C39.9009 27.5559 36.382 35.921 36.237 36.2773C36.166 36.452 36.0285 36.5913 35.8547 36.6647C35.681 36.738 35.4852 36.7393 35.3105 36.6683C35.1358 36.5973 34.9965 36.4598 34.9231 36.2861C34.8498 36.1123 34.8485 35.9166 34.9195 35.7418C34.9601 35.6456 38.9272 26.1328 49.3259 26.1328C55.7142 26.1328 61.2266 29.2752 63.7109 34.3334C65.4037 37.7808 67.0827 45.0673 59.3002 55.1411C56.8383 58.3293 55.414 61.62 54.1575 64.5251C51.9877 69.5386 50.1141 73.8684 43.9033 73.8684Z" fill="black"/>
<circle cx="42" cy="51" r="8" fill="#32B95B"/>
<path d="M39.5 47.9992C39.3375 47.2807 39.175 46.5622 39.0126 45.8438C38.3807 43.0477 37.7492 40.2515 37.1151 37.4562C36.9372 36.6722 36.7823 35.88 36.5756 35.1062C36.4253 34.5438 36.2737 33.9818 36.1072 33.4252L36.1961 34.1877C36.2166 34.1024 36.2515 33.9778 36.2942 33.8566C39.4719 27.519 49.4593 24.4209 56.0308 28.183C56.608 28.4729 57.156 28.7872 57.7136 29.1446C58.2728 29.5013 58.9454 29.6163 59.5888 29.4553C60.2319 29.2948 60.7931 28.8714 61.1436 28.2873C61.4942 27.7032 61.6037 27.0088 61.4428 26.3658C61.2822 25.7222 60.8643 25.1829 60.2864 24.8573C60.2864 24.8573 60.2864 24.8573 60.2864 24.8573C59.5628 24.4465 58.8456 24.0863 58.0865 23.7552C48.9715 19.6132 37.2213 23.1721 32.9702 32.8725C32.894 33.1492 32.8275 33.4873 32.8039 33.8107L32.8928 34.5731C33.1166 35.1093 33.3553 35.6402 33.5953 36.1706C33.9255 36.9002 34.3075 37.6114 34.6666 38.3307C35.9467 40.8953 37.2294 43.4589 38.5117 46.0227C38.8412 46.6815 39.1706 47.3403 39.5 47.9992Z" fill="#32B95B"/>
<defs>
<clipPath id="clip0_2974_39704">
<rect width="20" height="6" fill="white" transform="translate(40 32)"/>
</clipPath>
</defs>
</svg>
