<svg width="60" height="60" viewBox="0 0 60 60" fill="none" xmlns="http://www.w3.org/2000/svg">
<g filter="url(#filter0_d_3280_48884)">
<rect x="4" width="52" height="52" rx="26" fill="white"/>
<path d="M36.0508 22.969C36.1684 22.7245 36.1353 22.4341 35.9658 22.2223L30.1662 14.9701C30.0323 14.8025 29.8294 14.7051 29.6149 14.7051C29.4005 14.7051 29.1976 14.8026 29.0637 14.9701L23.264 22.2223C23.0946 22.4341 23.0615 22.7245 23.179 22.969C23.2966 23.2135 23.5438 23.3689 23.8151 23.3689H26.6271L27.3633 36.6265C27.3842 37.0025 27.6955 37.2933 28.0675 37.2933C28.0806 37.2933 28.0941 37.293 28.1073 37.2922C28.4965 37.2706 28.7946 36.9375 28.773 36.5482L27.9996 22.6239C27.9789 22.25 27.6695 21.9572 27.2949 21.9572H25.2834L29.6147 16.5411L33.946 21.9572H31.9345C31.5598 21.9572 31.2505 22.2498 31.2297 22.6239L30.4565 36.5482C30.4349 36.9374 30.7329 37.2706 31.1221 37.2922C31.5128 37.3125 31.8444 37.0158 31.8661 36.6265L32.6024 23.3689H35.4143C35.6857 23.3689 35.933 23.2134 36.0505 22.969H36.0508Z" fill="#009C43"/>
<path d="M36.3244 26.2268C35.9429 26.1502 35.5702 26.3981 35.4939 26.7806L33.5607 36.4502C33.4842 36.8325 33.7323 37.2044 34.1146 37.2807C34.1613 37.2901 34.2077 37.2946 34.2536 37.2946C34.5831 37.2946 34.8779 37.0625 34.945 36.7269L36.8781 27.0573C36.9546 26.675 36.7067 26.3031 36.3244 26.2268Z" fill="#009C43"/>
<path d="M24.738 29.8744C24.6617 29.4921 24.2901 29.2438 23.9075 29.3206C23.5252 29.397 23.2773 29.7688 23.3537 30.1511L24.6683 36.7264C24.7354 37.062 25.03 37.2941 25.3596 37.2941C25.4055 37.2941 25.4521 37.2896 25.4987 37.2802C25.881 37.2039 26.1289 36.832 26.0525 36.4497L24.738 29.8744Z" fill="#009C43"/>
</g>
<defs>
<filter id="filter0_d_3280_48884" x="0" y="0" width="60" height="60" filterUnits="userSpaceOnUse" color-interpolation-filters="sRGB">
<feFlood flood-opacity="0" result="BackgroundImageFix"/>
<feColorMatrix in="SourceAlpha" type="matrix" values="0 0 0 0 0 0 0 0 0 0 0 0 0 0 0 0 0 0 127 0" result="hardAlpha"/>
<feOffset dy="4"/>
<feGaussianBlur stdDeviation="2"/>
<feComposite in2="hardAlpha" operator="out"/>
<feColorMatrix type="matrix" values="0 0 0 0 0 0 0 0 0 0 0 0 0 0 0 0 0 0 0.25 0"/>
<feBlend mode="normal" in2="BackgroundImageFix" result="effect1_dropShadow_3280_48884"/>
<feBlend mode="normal" in="SourceGraphic" in2="effect1_dropShadow_3280_48884" result="shape"/>
</filter>
</defs>
</svg>
