<svg width="60" height="60" viewBox="0 0 60 60" fill="none" xmlns="http://www.w3.org/2000/svg">
<g filter="url(#filter0_d_3280_49183)">
<rect x="4" width="52" height="52" rx="26" fill="white"/>
<g clip-path="url(#clip0_3280_49183)">
<path d="M40.2948 28.1886C40.2817 28.1639 40.4112 28.3735 38.3905 25.1374C38.0739 24.5365 37.9066 23.8579 37.9066 23.1738C37.9066 20.7108 36.9433 18.3988 35.1944 16.6636C31.5762 13.074 25.7311 13.1249 22.1798 16.7413C19.3574 19.6155 18.8012 23.9038 20.5581 27.3434C21.7055 29.5776 22.3125 32.0767 22.3125 34.5706V37.5313C22.3125 37.7902 22.5212 38.0001 22.7801 38.0001H33.0875C33.3463 38.0001 33.562 37.7902 33.562 37.5313V34.2502H35.608C36.8765 34.2502 37.9213 33.2029 37.9213 31.9344V30.0507L39.2165 30.03C40.1457 30.014 40.74 29.0197 40.2948 28.1886ZM39.1946 29.0926L37.4386 29.1207C37.1827 29.1249 36.9838 29.3334 36.9838 29.5894V31.9343C36.9838 32.686 36.3596 33.3127 35.608 33.3127H33.0875C32.8286 33.3127 32.6246 33.5073 32.6246 33.7662V37.0626H23.25V34.5705C23.25 31.9284 22.6071 29.2812 21.3925 26.916C19.8447 23.8858 20.2726 20.0216 22.8488 17.3982C26.0291 14.1597 31.2785 14.0992 34.5341 17.3291C36.1044 18.887 36.9691 20.9627 36.9691 23.1738C36.9691 24.0162 37.177 24.8523 37.5702 25.5916C37.585 25.6192 37.4581 25.4134 39.474 28.6421C39.5733 28.8445 39.4264 29.0887 39.1946 29.0926Z" fill="#009C43"/>
<path d="M32.8815 21.8329C33.6337 20.8649 34.0288 19.757 33.9567 18.7597C33.94 18.5274 33.7552 18.3427 33.523 18.326C32.5258 18.2534 31.4177 18.6488 30.4497 19.4011C30.2971 18.1848 29.793 17.122 29.0369 16.4678C28.8608 16.3154 28.5996 16.3154 28.4235 16.4678C27.6673 17.122 27.1632 18.1848 27.0107 19.4013C26.0424 18.6491 24.934 18.2541 23.9375 18.326C23.7053 18.3427 23.5205 18.5275 23.5037 18.7597C23.4316 19.757 23.8267 20.8649 24.5789 21.833C23.3625 21.9855 22.2997 22.4897 21.6455 23.2458C21.4932 23.4219 21.4932 23.6831 21.6455 23.8592C23.2152 25.6735 26.8674 25.8096 28.7302 24.2106C30.5943 25.8107 34.2466 25.6719 35.8149 23.8592C35.9672 23.6831 35.9672 23.4219 35.8149 23.2458C35.1607 22.4896 34.0979 21.9855 32.8815 21.8329ZM33.0122 19.2705C32.9298 20.0251 32.4988 20.9767 31.6583 21.7988C31.1439 21.834 30.6518 21.931 30.1998 22.0828C30.3516 21.6309 30.4486 21.1387 30.4838 20.6243C31.31 19.7802 32.2611 19.3524 33.0122 19.2705ZM28.7302 17.4969C29.8369 18.8745 29.8381 21.4986 28.7302 22.8777C27.6235 21.5001 27.6223 18.876 28.7302 17.4969ZM26.9766 20.6243C27.0118 21.1387 27.1088 21.6309 27.2606 22.0828C26.8087 21.931 26.3165 21.834 25.8022 21.7988C25.1199 21.1321 24.5498 20.201 24.4483 19.2705C25.1998 19.3525 26.151 19.7809 26.9766 20.6243ZM22.6747 23.5525C24.0523 22.4458 26.6764 22.4446 28.0555 23.5525C26.6779 24.6591 24.0538 24.6604 22.6747 23.5525ZM29.4049 23.5525C30.7825 22.4458 33.4067 22.4446 34.7858 23.5525C33.4081 24.6591 30.784 24.6604 29.4049 23.5525Z" fill="#009C43"/>
</g>
</g>
<defs>
<filter id="filter0_d_3280_49183" x="0" y="0" width="60" height="60" filterUnits="userSpaceOnUse" color-interpolation-filters="sRGB">
<feFlood flood-opacity="0" result="BackgroundImageFix"/>
<feColorMatrix in="SourceAlpha" type="matrix" values="0 0 0 0 0 0 0 0 0 0 0 0 0 0 0 0 0 0 127 0" result="hardAlpha"/>
<feOffset dy="4"/>
<feGaussianBlur stdDeviation="2"/>
<feComposite in2="hardAlpha" operator="out"/>
<feColorMatrix type="matrix" values="0 0 0 0 0 0 0 0 0 0 0 0 0 0 0 0 0 0 0.25 0"/>
<feBlend mode="normal" in2="BackgroundImageFix" result="effect1_dropShadow_3280_49183"/>
<feBlend mode="normal" in="SourceGraphic" in2="effect1_dropShadow_3280_49183" result="shape"/>
</filter>
<clipPath id="clip0_3280_49183">
<rect width="24" height="24" fill="white" transform="translate(18 14)"/>
</clipPath>
</defs>
</svg>
