<svg width="60" height="60" viewBox="0 0 60 60" fill="none" xmlns="http://www.w3.org/2000/svg">
<g filter="url(#filter0_d_3280_49080)">
<rect x="4" width="52" height="52" rx="26" fill="white"/>
<path d="M31.2707 16.6835C29.4877 15.2398 27.155 14.6863 24.8682 15.1725C21.9687 15.7875 19.6465 18.1623 19.0905 21.0793C19.0192 21.4525 19.2637 21.8125 19.6372 21.8838C20.0105 21.9575 20.3705 21.7105 20.4417 21.337C20.8957 18.9558 22.7895 17.0205 25.154 16.518C27.031 16.119 28.9462 16.569 30.4047 17.7523C31.8647 18.9343 32.7015 20.6883 32.7015 22.563C32.7015 23.8645 32.3025 25.108 31.5477 26.161C30.576 27.5148 30.0227 29.195 29.9467 31.0215C29.9332 31.352 29.8862 31.6903 29.8057 32.0248C29.4047 33.7063 27.996 35.099 26.3002 35.4925C24.8262 35.835 23.3925 35.526 22.261 34.6275C21.112 33.7143 20.454 32.3243 20.454 30.8145C20.454 30.4345 20.1457 30.1268 19.7662 30.1268C19.3862 30.1268 19.0785 30.4343 19.0785 30.8145C19.0785 32.7458 19.926 34.528 21.4052 35.7045C22.4742 36.554 23.7905 37 25.1577 37C25.6392 37 26.126 36.945 26.611 36.8335C28.8372 36.3165 30.616 34.5543 31.1432 32.345C31.244 31.9233 31.3037 31.4975 31.3205 31.0785C31.385 29.522 31.8497 28.0983 32.665 26.9633C33.589 25.6753 34.0765 24.1535 34.0765 22.5633C34.0765 20.272 33.0537 18.1285 31.2707 16.6835Z" fill="#009C43"/>
<path d="M23.9936 26.0563H22.9534C22.5739 26.0563 22.2656 26.3638 22.2656 26.7441V29.3188C22.2656 31.0823 23.7001 32.5166 25.4634 32.5166C27.0066 32.5166 28.2616 31.2621 28.2616 29.7191C28.2616 29.3391 27.9534 29.0313 27.5739 29.0313C27.1944 29.0313 26.8861 29.3388 26.8861 29.7191C26.8861 30.5033 26.2474 31.1413 25.4631 31.1413C24.4586 31.1413 23.6406 30.3233 23.6406 29.3188V27.4318H23.9931C25.1879 27.4318 26.1589 26.4593 26.1589 25.2656C26.1589 24.0718 25.1879 23.0993 23.9931 23.0993H23.7144C23.7196 23.0618 23.7259 23.0256 23.7331 22.9918C23.9359 21.9308 24.7861 21.0618 25.8451 20.8321C26.6946 20.6508 27.5274 20.8468 28.1881 21.3828C28.8436 21.9133 29.2196 22.7018 29.2196 23.5438C29.2196 23.9238 29.5271 24.2316 29.9074 24.2316C30.2869 24.2316 30.5951 23.9241 30.5951 23.5438C30.5951 22.2841 30.0331 21.1076 29.0539 20.3138C28.0794 19.5241 26.8056 19.2246 25.5566 19.4878C23.9631 19.8343 22.6871 21.1386 22.3836 22.7273C22.3311 22.9866 22.3024 23.3506 22.2896 23.7656C22.2829 23.9508 22.3526 24.1323 22.4831 24.2651C22.6121 24.3993 22.7906 24.4746 22.9766 24.4746H23.9934C24.4374 24.4746 24.7839 24.8223 24.7839 25.2656C24.7839 25.7088 24.4374 26.0563 23.9936 26.0563Z" fill="#009C43"/>
<path d="M36.7702 23.4688C36.8782 23.4688 36.9884 23.4433 37.0912 23.3896L40.5604 21.5563C40.8962 21.3791 41.0237 20.9626 40.8464 20.6268C40.6692 20.2911 40.2534 20.1621 39.9169 20.3393L36.4479 22.1728C36.1122 22.3501 35.9847 22.7666 36.1619 23.1023C36.2854 23.3361 36.5229 23.4688 36.7702 23.4688Z" fill="#009C43"/>
<path d="M40.5567 30.3506L37.0875 28.5158C36.7517 28.3413 36.3355 28.4676 36.158 28.8033C35.9807 29.1391 36.1082 29.5541 36.444 29.7328L39.9132 31.5676C40.016 31.6213 40.1255 31.6468 40.2342 31.6468C40.4812 31.6468 40.719 31.5138 40.8427 31.2801C41.0202 30.9441 40.8927 30.5291 40.5567 30.3506Z" fill="#009C43"/>
<path d="M40.2345 25.2656H36.1253C35.7458 25.2656 35.4375 25.5731 35.4375 25.9534C35.4375 26.3336 35.7458 26.6411 36.1253 26.6411H40.2343C40.6138 26.6411 40.922 26.3336 40.922 25.9534C40.922 25.5731 40.6138 25.2656 40.2345 25.2656Z" fill="#009C43"/>
</g>
<defs>
<filter id="filter0_d_3280_49080" x="0" y="0" width="60" height="60" filterUnits="userSpaceOnUse" color-interpolation-filters="sRGB">
<feFlood flood-opacity="0" result="BackgroundImageFix"/>
<feColorMatrix in="SourceAlpha" type="matrix" values="0 0 0 0 0 0 0 0 0 0 0 0 0 0 0 0 0 0 127 0" result="hardAlpha"/>
<feOffset dy="4"/>
<feGaussianBlur stdDeviation="2"/>
<feComposite in2="hardAlpha" operator="out"/>
<feColorMatrix type="matrix" values="0 0 0 0 0 0 0 0 0 0 0 0 0 0 0 0 0 0 0.25 0"/>
<feBlend mode="normal" in2="BackgroundImageFix" result="effect1_dropShadow_3280_49080"/>
<feBlend mode="normal" in="SourceGraphic" in2="effect1_dropShadow_3280_49080" result="shape"/>
</filter>
</defs>
</svg>
