<svg width="147" height="76" viewBox="0 0 147 76" fill="none" xmlns="http://www.w3.org/2000/svg">
<rect width="146.11" height="75.9644" transform="translate(0.445312)" fill="white"/>
<mask id="mask0_3481_20727" style="mask-type:luminance" maskUnits="userSpaceOnUse" x="3" y="6" width="142" height="63">
<path d="M3 69H144.995V6.00202H3V69Z" fill="white"/>
</mask>
<g mask="url(#mask0_3481_20727)">
<path d="M132.085 58.5H15.906C14.4801 58.5 13.3242 57.3248 13.3242 55.875V19.1263C13.3242 17.6765 14.4801 16.5013 15.906 16.5013H132.085C133.511 16.5013 134.667 17.6765 134.667 19.1263V55.875C134.667 57.3248 133.511 58.5 132.085 58.5Z" fill="#AA1835"/>
<path d="M40.1123 32.076C41.0861 32.076 41.7545 32.1457 42.0804 32.5005C42.4021 32.8486 42.5642 33.604 42.5782 34.8102C41.199 34.8689 38.5738 34.865 37.258 34.7259C37.3589 32.585 37.5037 32.076 40.1123 32.076ZM36.0789 32.3955C35.7857 33.0905 35.6109 34.2465 35.6109 35.4836C35.6109 37.518 35.9679 38.7396 36.7675 39.4464C37.5874 40.1725 38.914 40.2722 40.2253 40.2722C41.4849 40.2722 42.2466 40.1639 43.6296 39.9667L43.7376 39.952L43.7513 38.5347L43.6836 38.5472C43.6669 38.5501 41.931 38.8565 40.1499 38.8565C38.9476 38.8565 38.1509 38.6399 37.7809 38.2178C37.3095 37.6881 37.2346 36.9072 37.2315 36.1363C37.6137 36.1471 39.8175 36.2136 41.0359 36.2136C42.1497 36.2136 44.0984 36.0683 44.1182 36.0666L44.1676 36.0628L44.1707 36.0126C44.1711 36.004 44.2182 35.1488 44.2182 34.8342C44.2182 33.263 44.0083 32.3196 43.5155 31.6787C42.8215 30.8134 41.3488 30.6967 39.9997 30.6967C38.3354 30.6967 36.7083 30.9025 36.0789 32.3955ZM47.3677 27.978C46.7727 28.5649 46.4956 29.4843 46.4956 30.8706C46.4956 32.4056 46.88 33.3086 47.7427 33.7972C48.5311 34.2465 49.6763 34.3038 51.0018 34.368L51.476 34.3927C52.7449 34.4576 53.5453 34.5109 53.9838 34.7954C54.3793 35.0522 54.5188 35.5076 54.5188 36.5382C54.5188 37.436 54.3397 37.9339 53.9009 38.2557C53.4621 38.5765 52.7119 38.7204 51.4677 38.7204C49.5532 38.7204 46.7659 38.3646 46.7659 38.3646L46.7571 39.952C46.7571 39.952 49.1425 40.2722 51.4871 40.2722C53.4305 40.2722 54.5632 40.0046 55.2739 39.3776C55.9816 38.7543 56.2702 37.8358 56.2702 36.2129C56.2702 34.6849 55.8733 33.7369 55.0189 33.2267C54.2501 32.7674 53.1918 32.7071 51.9651 32.6374L50.7681 32.561L50.5323 32.5462C48.8553 32.4402 48.2277 32.4016 48.2277 30.8885C48.2277 30.0279 48.3088 29.4564 48.723 29.0815C49.1561 28.6894 49.9736 28.5139 51.3734 28.5139C53.3036 28.5139 55.6436 28.814 55.6436 28.814L55.6451 27.3054L55.5957 27.2992C55.569 27.2961 52.999 26.983 51.317 26.983C49.1736 26.983 48.1028 27.252 47.3677 27.978ZM60.4854 38.3802C60.1546 37.937 60.0944 37.0564 60.0944 35.4836C60.0944 33.9125 60.1546 33.0333 60.4854 32.5887C60.8074 32.155 61.456 32.076 62.6182 32.076C63.7795 32.076 64.4286 32.155 64.7513 32.5887C65.0814 33.0333 65.1412 33.9125 65.1412 35.4836C65.1412 37.0564 65.0814 37.937 64.7513 38.3802C64.4286 38.8139 63.7795 38.8928 62.6182 38.8928C61.456 38.8928 60.8074 38.8139 60.4854 38.3802ZM59.21 31.6439C58.5662 32.4016 58.4365 33.6752 58.4365 35.4836C58.4365 37.2937 58.5662 38.5681 59.21 39.3258C59.8772 40.1113 61.056 40.2722 62.6182 40.2722C64.1805 40.2722 65.3578 40.1113 66.0259 39.3258C66.6697 38.5681 66.7989 37.2937 66.7989 35.4836C66.7989 33.6752 66.6697 32.4016 66.0259 31.6439C65.3578 30.859 64.1805 30.6967 62.6182 30.6967C61.056 30.6967 59.8772 30.859 59.21 31.6439ZM75.4968 30.8119C75.4968 30.8119 75.4931 38.4713 75.4931 38.558C75.1585 38.6454 74.1766 38.8742 73.1575 38.8742C71.2267 38.8742 70.9346 38.5703 70.9346 36.5569V30.8119H69.3345V36.7873C69.3345 38.2286 69.5437 39.0281 70.0592 39.543C70.5755 40.0611 71.3757 40.2722 72.8175 40.2722C73.2587 40.2722 73.8876 40.1863 74.1546 40.15L74.2602 40.1361C74.4131 40.1175 74.585 40.0517 74.8679 39.9304C75.1585 39.8043 75.3281 39.6907 75.3348 39.6868C75.4155 39.6304 75.4839 39.584 75.5493 39.584C75.6072 39.584 75.6245 39.584 75.6467 39.7132L75.649 39.7116C75.649 39.724 75.7112 40.1384 75.7112 40.1384H77.0992L77.0939 30.8119H75.4968ZM83.0768 30.7949L82.8942 30.8127C82.6912 30.8305 82.1877 31.0786 82.085 31.1389C81.9481 31.2186 81.6485 31.3671 81.5777 31.3671C81.5192 31.3671 81.501 31.3671 81.4798 31.2372C81.4803 31.2379 81.4151 30.8119 81.4151 30.8119H80.0522V40.1384H81.6523V32.3799C82.0189 32.3011 83.0928 32.0947 84.1194 32.0947C85.1826 32.0947 85.6837 32.2029 85.9636 32.4952C86.2405 32.7844 86.3416 33.2985 86.3416 34.3927V40.1569H87.9431V34.1622C87.9431 32.7388 87.7272 31.9177 87.2206 31.415C86.7165 30.9116 85.8899 30.6967 84.4585 30.6967C84.0441 30.6967 83.4167 30.7608 83.0768 30.7949ZM92.5169 38.2286C92.1859 37.7684 92.0583 36.9992 92.0583 35.4836C92.0583 33.9681 92.1875 33.1964 92.5237 32.7309C92.8536 32.2749 93.4051 32.0947 94.4881 32.0947C95.2935 32.0947 96.276 32.2007 96.8988 32.2949V38.5193C96.5468 38.6113 95.5133 38.8565 94.4881 38.8565C93.4081 38.8565 92.8378 38.674 92.5169 38.2286ZM96.8904 26.9628C96.8904 26.9628 96.8972 30.8242 96.8988 30.9573C96.5482 30.8931 95.377 30.6967 94.0919 30.6967C92.6066 30.6967 91.6072 31.1598 91.0361 32.1094C90.475 33.0403 90.4004 34.3385 90.4004 35.4836C90.4004 36.6482 90.4741 37.9625 91.0232 38.8928C91.5692 39.8206 92.5252 40.2722 93.9412 40.2722C94.641 40.2722 95.1147 40.2011 95.3976 40.1601L95.5757 40.1353C95.7862 40.1144 96.2699 39.8554 96.2995 39.8399C96.3703 39.8098 96.4585 39.7673 96.5452 39.7233C96.6555 39.6676 96.822 39.5856 96.8608 39.584C96.9452 39.584 96.9581 39.5963 96.9772 39.7132L97.0418 40.1384H98.4935L98.4996 26.9628H96.8904ZM29.2843 28.4953C30.4918 28.4953 31.184 28.6577 31.5266 29.0235L31.53 29.0273C31.9092 29.4124 31.9406 29.9846 31.9406 30.6402C31.9406 31.2828 31.9092 31.848 31.53 32.2331C31.1848 32.6019 30.4918 32.7659 29.2843 32.7659H25.3856V28.4953H29.2843ZM23.6897 26.9628V40.1384H25.3825C25.3825 40.1384 25.3856 34.3903 25.3856 34.2789C25.4901 34.2789 28.0225 34.2782 28.0804 34.2782C28.1139 34.3277 31.9543 40.1384 31.9543 40.1384H34.0305L30.1718 34.3223C30.1718 34.3223 30.1532 34.2805 30.2064 34.2805C30.3975 34.2805 31.0106 34.2435 31.8122 33.9565C32.2669 33.7919 32.5894 33.5328 32.8642 33.2344C33.4088 32.6197 33.6732 31.7777 33.6732 30.6587C33.6732 29.2841 33.3852 28.3763 32.7673 27.8017C32.1495 27.2304 31.1753 26.9628 29.6991 26.9628H23.6897ZM31.784 28.7706C31.784 28.7706 31.7851 28.7713 31.7856 28.7722L31.783 28.7682C31.7832 28.7691 31.7835 28.7698 31.784 28.7706ZM24.7314 47.9922H23.8642C23.7472 47.9922 23.6523 47.8957 23.6523 47.7768V45.5837C23.6523 45.4647 23.7472 45.3682 23.8642 45.3682H24.7314C24.8485 45.3682 24.9433 45.4647 24.9433 45.5837V47.7768C24.9433 47.8957 24.8485 47.9922 24.7314 47.9922ZM29.0781 47.9922H28.0696C27.947 47.9922 27.8478 47.8911 27.8478 47.7665V45.5939C27.8478 45.4693 27.947 45.3682 28.0696 45.3682H29.0781C29.2007 45.3682 29.2999 45.4693 29.2999 45.5939V47.7665C29.2999 47.8911 29.2007 47.9922 29.0781 47.9922ZM33.4247 47.9922H32.2751C32.147 47.9922 32.0431 47.8865 32.0431 47.7563V45.6041C32.0431 45.4739 32.147 45.3682 32.2751 45.3682H33.4247C33.5528 45.3682 33.6567 45.4739 33.6567 45.6041V47.7563C33.6567 47.8865 33.5528 47.9922 33.4247 47.9922ZM37.7714 47.9922H36.4804C36.3468 47.9922 36.2384 47.882 36.2384 47.7461V45.6143C36.2384 45.4785 36.3468 45.3682 36.4804 45.3682H37.7714C37.905 45.3682 38.0135 45.4785 38.0135 45.6143V47.7461C38.0135 47.882 37.905 47.9922 37.7714 47.9922ZM42.118 47.9922H40.6859C40.5466 47.9922 40.4338 47.8774 40.4338 47.7359V45.6246C40.4338 45.4831 40.5466 45.3682 40.6859 45.3682H42.118C42.2573 45.3682 42.3701 45.4831 42.3701 45.6246V47.7359C42.3701 47.8774 42.2573 47.9922 42.118 47.9922ZM46.4645 47.9922H44.8913C44.7466 47.9922 44.6291 47.8728 44.6291 47.7255V45.6349C44.6291 45.4877 44.7466 45.3682 44.8913 45.3682H46.4645C46.6094 45.3682 46.7268 45.4877 46.7268 45.6349V47.7255C46.7268 47.8728 46.6094 47.9922 46.4645 47.9922ZM50.8112 47.9922H49.0968C48.9464 47.9922 48.8245 47.8682 48.8245 47.7153V45.6452C48.8245 45.4923 48.9464 45.3682 49.0968 45.3682H50.8112C50.9616 45.3682 51.0834 45.4923 51.0834 45.6452V47.7153C51.0834 47.8682 50.9616 47.9922 50.8112 47.9922ZM55.1578 47.9922H53.3023C53.1462 47.9922 53.0198 47.8636 53.0198 47.705V45.6554C53.0198 45.4968 53.1462 45.3682 53.3023 45.3682H55.1578C55.3139 45.3682 55.4402 45.4968 55.4402 45.6554V47.705C55.4402 47.8636 55.3139 47.9922 55.1578 47.9922ZM59.5045 47.9922H57.5076C57.3461 47.9922 57.2151 47.859 57.2151 47.6948V45.6656C57.2151 45.5014 57.3461 45.3682 57.5076 45.3682H59.5045C59.6659 45.3682 59.797 45.5014 59.797 45.6656V47.6948C59.797 47.859 59.6659 47.9922 59.5045 47.9922ZM63.851 47.9922H61.7131C61.546 47.9922 61.4106 47.8544 61.4106 47.6846V45.676C61.4106 45.506 61.546 45.3682 61.7131 45.3682H63.851C64.0182 45.3682 64.1536 45.506 64.1536 45.676V47.6846C64.1536 47.8544 64.0182 47.9922 63.851 47.9922ZM68.1977 47.9922H65.9287C65.756 47.9922 65.6159 47.8498 65.6159 47.6742V45.6862C65.6159 45.5106 65.756 45.3682 65.9287 45.3682H68.1977C68.3704 45.3682 68.5103 45.5106 68.5103 45.6862V47.6742C68.5103 47.8498 68.3704 47.9922 68.1977 47.9922ZM113.442 47.9922H70.5623C70.2466 47.9922 69.9908 47.732 69.9908 47.4111V45.9493C69.9908 45.6284 70.2466 45.3682 70.5623 45.3682H113.442C113.758 45.3682 114.014 45.6284 114.014 45.9493V47.4111C114.014 47.732 113.758 47.9922 113.442 47.9922ZM123.62 36.0991C123.426 36.0991 123.235 36.0222 123.092 35.8771L117.147 29.832C117.059 29.7425 116.908 29.8059 116.908 29.9326V35.3158C116.908 35.7333 116.587 36.0914 116.176 36.0989C115.758 36.1068 115.416 35.7644 115.416 35.3409V27.7816C115.416 27.5156 115.542 27.2598 115.763 27.1183C115.906 27.0262 116.076 26.9863 116.244 27.0053C116.413 27.0243 116.57 27.101 116.69 27.2227L122.635 33.2677C122.723 33.3574 122.874 33.2939 122.874 33.1673V27.7841C122.874 27.3666 123.195 27.0085 123.605 27.0009C124.024 26.9931 124.365 27.3355 124.365 27.7589V35.3177C124.365 35.5912 124.232 35.8533 124.001 35.9927C123.885 36.0623 123.754 36.0991 123.62 36.0991ZM113.178 30.7918H110.97C110.558 30.7918 110.204 31.1192 110.198 31.5378C110.191 31.9621 110.528 32.3081 110.943 32.3081H112.249C112.351 32.3081 112.435 32.393 112.435 32.4977V34.3932C112.435 34.4979 112.351 34.5827 112.249 34.5827V34.5828H109.509C107.774 34.5828 106.376 33.139 106.474 31.3778C106.562 29.7852 107.864 28.5171 109.452 28.5171H113.154C113.566 28.5171 113.92 28.1896 113.926 27.7709C113.933 27.3467 113.597 27.0008 113.181 27.0008H109.52C107.12 27.0008 105.095 28.8953 104.983 31.3329C104.863 33.9395 106.914 36.0991 109.452 36.0991H113.178C113.592 36.0991 113.926 35.7586 113.926 35.3387V31.5521C113.926 31.1321 113.592 30.7918 113.178 30.7918Z" fill="white"/>
</g>
</svg>
