<svg width="147" height="76" viewBox="0 0 147 76" fill="none" xmlns="http://www.w3.org/2000/svg">
<rect width="146.11" height="75.9644" fill="white"/>
<g clip-path="url(#clip0_3481_20702)">
<path d="M71.7305 39.5075H75.6242V26.0437H75.7008L81.5414 39.5075H87.0977V19.8633H83.0617V33.196L77.3633 19.8633H71.7305V39.5075Z" fill="#413F38"/>
<path d="M89.1875 39.5075L95.5203 19.8633H101.011L107.475 39.5075H102.608L101.361 35.3472H95.1047L93.7813 39.5075H89.1875ZM98.2984 23.8926L96.0781 31.6018H100.245L98.2984 23.8926Z" fill="#3C3B34"/>
<path d="M109.422 39.5075H113.939V30.5535L119.156 39.5075H124.855L118.183 28.9593L124.373 19.8633H119.014L113.939 27.8455V19.8633H109.422V39.5075Z" fill="#3C3B34"/>
<path d="M21.4609 19.8633H26.8203C31.8953 19.8633 34.3344 21.8725 34.3344 26.3167C34.3344 30.2696 31.8297 32.6391 27.6625 32.6391H25.9781V39.5075H21.4609V19.8633ZM25.9781 28.8937H27.0938C28.625 28.8937 29.8719 28.2713 29.8719 26.1857C29.8719 24.1765 28.625 23.5432 27.0938 23.5432H25.9781V28.8937Z" fill="#414034"/>
<path d="M59.9062 19.3828C57.4672 19.3828 55.1047 20.5621 53.5078 22.5058L55.5203 27.1575C56.2203 25.3558 57.8172 24.0345 59.6219 24.0345C62.0609 24.0345 64.0734 26.3932 64.0734 29.0357C64.0734 32.3006 62.0609 34.6592 59.6219 34.6592C59.3484 34.6592 58.9984 34.5937 58.7141 34.5173L60.9344 39.584C65.5281 39.0271 68.7219 34.8667 68.7219 29.1667C68.6672 23.4121 64.4344 19.3828 59.9062 19.3828Z" fill="#3C3B34"/>
<path d="M57.0617 34.8668C59.3586 34.8668 61.2289 32.9886 61.2289 30.7064C61.2289 28.4242 59.3586 26.5352 57.0617 26.5352C54.7648 26.5352 52.8945 28.4133 52.8945 30.6955C52.8945 32.9777 54.7648 34.8668 57.0617 34.8668Z" fill="#8BBD3F"/>
<path d="M36.8281 39.5075H41.3453V31.0449H46.6281V39.5075H51.0797V19.8633H46.6281V27.365H41.3453V19.8633H36.8281V39.5075Z" fill="#3C3B34"/>
<path d="M64.225 45.6228C64.225 44.3016 63.875 43.9521 62.8359 43.9521V43.6027L66.1062 43.1113V56.0947H64.225V45.6228Z" fill="#929189"/>
<path d="M69.1609 49.8597C69.1609 48.5384 68.8875 48.2654 67.6953 48.189V47.8396L70.9656 47.2172V56.0292H69.0844V49.8488H69.1609V49.8597ZM69.0188 44.5856C69.0188 43.9631 69.5109 43.4062 70.2 43.4062C70.8234 43.4062 71.3813 43.8976 71.3813 44.5856C71.3813 45.208 70.8234 45.7649 70.2 45.7649C69.5109 45.7649 69.0188 45.2735 69.0188 44.5856Z" fill="#929189"/>
<path d="M74.375 48.1888H72.8438V47.4245H74.375V46.1796C74.375 44.7164 74.9984 43.0566 77.2297 43.0566C79.5922 43.0566 80.4234 43.8865 80.6422 45.2733H78.5531C78.5531 44.5745 78.2797 43.7446 77.3719 43.7446C76.2562 43.7446 76.1906 44.9239 76.1906 45.8302V47.5009H78.6953V48.1997H76.1906V56.1164H74.3094V48.1997H74.375V48.1888Z" fill="#929189"/>
<path d="M86.682 55.7559C86.332 55.8978 85.3586 56.2473 84.0352 56.2473C81.1805 56.2473 79.4414 54.5111 79.4414 51.4536C79.4414 48.5381 80.8305 47.2168 83.3352 47.2168C86.5289 47.2168 86.7477 49.5099 86.7477 50.7547H81.4648C81.4648 52.6329 82.2305 55.2645 84.8773 55.2645C85.643 55.2645 86.343 55.057 86.6164 54.9151V55.745H86.682V55.7559ZM85.0195 49.9904C85.0195 49.5754 84.9539 47.8392 83.3461 47.8392C81.957 47.8392 81.5414 49.3024 81.5414 49.9904H85.0195Z" fill="#929189"/>
<path d="M92.2469 49.8597C92.2469 48.5384 91.9734 48.2654 90.7812 48.189V47.8396L94.0516 47.2172V56.0292H92.1703V49.8488H92.2469V49.8597ZM92.0391 44.5856C92.0391 43.9631 92.5313 43.4062 93.2203 43.4062C93.8438 43.4062 94.4016 43.8976 94.4016 44.5856C94.4016 45.208 93.8438 45.7649 93.2203 45.7649C92.5203 45.7649 92.0391 45.2735 92.0391 44.5856Z" fill="#929189"/>
<path d="M101.632 48.9522C101.359 48.7447 100.451 48.0459 99.4117 48.0459C98.7883 48.0459 98.0883 48.2534 98.0883 49.0832C98.0883 50.8194 102.19 50.885 102.19 53.735C102.19 55.5367 100.659 56.3011 98.8539 56.3011C97.7383 56.3011 96.907 56.0936 96.4914 55.9516V54.4884C97.0492 54.8378 97.8805 55.4603 98.9305 55.4603C100.112 55.4603 100.527 54.8378 100.527 54.2154C100.527 52.4137 96.4258 52.2717 96.4258 49.7057C96.4258 48.3844 97.3336 47.2051 99.5539 47.2051C100.527 47.2051 101.293 47.4126 101.643 47.5545V48.9522H101.632Z" fill="#83837F"/>
<path d="M106.852 51.7266C106.852 48.6036 108.175 47.2168 110.888 47.2168C113.6 47.2168 114.923 49.095 114.923 51.7266C114.923 54.784 113.677 56.2363 110.888 56.2363C107.891 56.2473 106.852 54.3691 106.852 51.7266ZM110.888 55.6139C112.692 55.6139 112.834 53.6047 112.834 51.7266C112.834 49.9904 112.692 47.8392 110.888 47.8392C109.083 47.8392 108.941 50.1323 108.941 51.7266C108.941 53.3317 109.072 55.6139 110.888 55.6139Z" fill="#929189"/>
<path d="M117.208 49.8593C117.208 48.5381 116.858 48.2651 115.742 48.1886V47.8392L119.078 47.2168V49.5754H119.144C119.417 48.953 120.391 47.2168 122.272 47.2168C123.945 47.2168 124.492 48.3961 124.492 49.8593V56.1053H122.611V51.3116C122.611 49.8484 122.611 48.5381 121.364 48.5381C120.117 48.5381 119.067 50.2743 119.067 51.5955V56.1053H117.186V49.8593H117.208Z" fill="#929189"/>
</g>
<defs>
<clipPath id="clip0_3481_20702">
<rect width="105" height="38" fill="white" transform="translate(20.5547 19)"/>
</clipPath>
</defs>
</svg>
