<svg width="147" height="76" viewBox="0 0 147 76" fill="none" xmlns="http://www.w3.org/2000/svg">
<rect width="146.11" height="75.9644" fill="white"/>
<g clip-path="url(#clip0_3481_20692)">
<path d="M54.3125 27.8762H60.3261V22L54.3125 23.0595V27.8762Z" fill="#C6168D"/>
<path d="M76.1951 30.6836C73.0711 30.752 70.098 32.0411 67.9128 34.2747C65.7276 36.5083 64.5039 39.5088 64.5039 42.6336C64.5039 45.7584 65.7276 48.7589 67.9128 50.9925C70.098 53.2261 73.0711 54.5151 76.1951 54.5835C77.7811 54.5871 79.3517 54.2721 80.8136 53.6572C82.2756 53.0423 83.5992 52.1401 84.7058 51.004L80.7998 47.0923C79.9109 48.0121 78.7675 48.6454 77.5162 48.911C76.2649 49.1767 74.9629 49.0625 73.7769 48.5831C72.591 48.1037 71.5753 47.2809 70.8601 46.2204C70.1449 45.1599 69.7628 43.9099 69.7628 42.6307C69.7628 41.3516 70.1449 40.1016 70.8601 39.041C71.5753 37.9805 72.591 37.1578 73.7769 36.6784C74.9629 36.199 76.2649 36.0848 77.5162 36.3504C78.7675 36.616 79.9109 37.2493 80.7998 38.1692L84.7058 34.2632C83.5992 33.1271 82.2756 32.2248 80.8136 31.6099C79.3517 30.9951 77.7811 30.6801 76.1951 30.6836Z" fill="black"/>
<path d="M21.9468 30.6836C19.5818 30.6825 17.2696 31.383 15.3028 32.6964C13.3361 34.0099 11.8032 35.8773 10.8981 38.0623C9.99309 40.2473 9.75657 42.6516 10.2185 44.9711C10.6805 47.2906 11.8201 49.4209 13.4932 51.0924C15.1664 52.7639 17.2977 53.9015 19.6177 54.3612C21.9376 54.821 24.3417 54.5821 26.5258 53.675C28.71 52.7678 30.5759 51.2331 31.8875 49.2651C33.199 47.2971 33.8973 44.9842 33.8939 42.6192C33.8863 39.454 32.6248 36.4208 30.3856 34.1838C28.1464 31.9467 25.112 30.6881 21.9468 30.6836ZM21.9468 49.0567C20.6761 49.0578 19.4336 48.6822 18.3764 47.9773C17.3191 47.2724 16.4946 46.2698 16.007 45.0964C15.5194 43.923 15.3907 42.6313 15.637 41.3848C15.8834 40.1382 16.4938 38.9926 17.3912 38.0929C18.2885 37.1932 19.4324 36.5797 20.6783 36.33C21.9242 36.0803 23.2162 36.2056 24.391 36.69C25.5657 37.1745 26.5704 37.9963 27.2782 39.0517C27.9859 40.107 28.3648 41.3485 28.3671 42.6192C28.3686 44.324 27.6932 45.9597 26.4894 47.1668C25.2855 48.3739 23.6516 49.0537 21.9468 49.0567Z" fill="black"/>
<path d="M37.7148 26.0086V45.825C37.7148 53.7344 44.473 54.5935 47.3825 54.5935C47.977 54.5939 48.5706 54.548 49.1579 54.456L49.2897 54.4274V49.2728H48.0984C44.158 49.2728 43.7285 46.3748 43.7285 45.132V36.6614H49.2897V31.5068H43.7285V24.9434L37.7148 26.0086Z" fill="black"/>
<path d="M98.2007 30.6836C95.8357 30.6825 93.5235 31.383 91.5568 32.6964C89.59 34.0099 88.0571 35.8773 87.152 38.0623C86.247 40.2473 86.0105 42.6516 86.4724 44.9711C86.9344 47.2906 88.074 49.4209 89.7471 51.0924C91.4203 52.7639 93.5517 53.9015 95.8716 54.3612C98.1915 54.821 100.596 54.5821 102.78 53.675C104.964 52.7678 106.83 51.2331 108.141 49.2651C109.453 47.2971 110.151 44.9842 110.148 42.6192C110.14 39.454 108.879 36.4208 106.64 34.1838C104.4 31.9467 101.366 30.6881 98.2007 30.6836ZM98.2007 49.0567C96.93 49.0578 95.6875 48.6822 94.6303 47.9773C93.573 47.2724 92.7485 46.2698 92.2609 45.0964C91.7733 43.923 91.6446 42.6313 91.891 41.3848C92.1373 40.1382 92.7478 38.9926 93.6451 38.0929C94.5424 37.1932 95.6863 36.5797 96.9322 36.33C98.1782 36.0803 99.4701 36.2056 100.645 36.69C101.82 37.1745 102.824 37.9963 103.532 39.0517C104.24 40.107 104.619 41.3485 104.621 42.6192C104.623 44.324 103.947 45.9597 102.743 47.1668C101.539 48.3739 99.9055 49.0537 98.2007 49.0567Z" fill="black"/>
<path d="M54.3125 54.3307H60.3261V31.4961H54.3125V54.3307Z" fill="black"/>
<path d="M129.987 54.3307H136.001V39.3253C136 37.2503 135.175 35.2607 133.708 33.7929C132.242 32.3251 130.253 31.4991 128.178 31.4961H114.031V54.3307H120.045V36.6621H126.666C127.547 36.6636 128.392 37.0149 129.015 37.6387C129.638 38.2626 129.987 39.1081 129.987 39.9896V54.3307Z" fill="black"/>
</g>
<defs>
<clipPath id="clip0_3481_20692">
<rect width="126" height="32.5939" fill="white" transform="translate(10 22)"/>
</clipPath>
</defs>
</svg>
