<svg width="42" height="42" viewBox="0 0 42 42" fill="none" xmlns="http://www.w3.org/2000/svg">
<path d="M18.6234 41.9995C14.5725 41.9995 10.8947 41.1523 8.16343 39.5754C5.32499 37.9365 3.76164 35.6332 3.76172 33.0894C3.76172 30.0745 5.97427 27.068 9.83211 24.8407C13.2634 22.8596 17.6369 21.6656 22.1471 21.4787C26.6785 21.2908 30.8294 22.1427 33.8339 23.8773C36.6723 25.516 38.2356 27.8195 38.2356 30.3632C38.2356 33.3781 36.0231 36.3846 32.1652 38.6119C28.7339 40.593 24.3604 41.7869 19.8502 41.9739C19.4381 41.9909 19.0287 41.9995 18.6234 41.9995ZM23.3619 22.9653C18.9295 22.9653 14.245 24.0473 10.5918 26.1565C7.21679 28.1051 5.2811 30.632 5.2811 33.0894C5.2811 35.0675 6.57449 36.9036 8.92304 38.2596C14.6614 41.5726 24.747 41.1404 31.4054 37.2961C34.7804 35.3476 36.7161 32.8206 36.7161 30.3632C36.7161 28.3852 35.4227 26.5491 33.0742 25.1931C30.4842 23.6977 27.0084 22.9653 23.3619 22.9653Z" fill="url(#paint0_linear_0_2501)"/>
<path d="M19.3272 39.1893C16.4329 39.1893 13.8014 38.5818 11.8429 37.451C9.77029 36.2544 8.62891 34.5622 8.62891 32.6861C8.62891 30.4792 10.2289 28.2897 13.0188 26.679C15.4676 25.2651 18.5862 24.4132 21.8001 24.2799C25.0358 24.1457 28.0035 24.7567 30.1571 26.0001C32.2297 27.1967 33.3711 28.8889 33.3711 30.7649C33.3712 32.9717 31.7711 35.1613 28.9812 36.7721C26.5324 38.1859 23.4138 39.0379 20.1999 39.1711C19.9068 39.1832 19.6154 39.1893 19.3272 39.1893ZM22.6653 25.7726C19.5825 25.7726 16.3223 26.5262 13.7785 27.9948C11.4715 29.3268 10.1484 31.0367 10.1484 32.6861C10.1484 33.9965 11.02 35.2214 12.6026 36.1351C16.5842 38.4339 23.591 38.129 28.2214 35.4562C30.5285 34.1243 31.8516 32.4143 31.8515 30.7649C31.8515 29.4546 30.98 28.2297 29.3973 27.3159C27.6031 26.28 25.1937 25.7726 22.6653 25.7726Z" fill="url(#paint1_linear_0_2501)"/>
<path d="M20.0411 36.3867C18.36 36.3867 16.7487 36.0378 15.5185 35.3275C14.2118 34.573 13.4922 33.492 13.4922 32.2836C13.4922 30.8847 14.4798 29.5123 16.2017 28.5181C19.2741 26.7443 23.7871 26.5711 26.4763 28.1237C27.7831 28.8782 28.5027 29.9592 28.5027 31.1676C28.5027 32.5664 27.5149 33.9389 25.7932 34.9331C24.1263 35.8955 22.0348 36.3867 20.0411 36.3867ZM21.9767 28.5981C20.2297 28.5981 18.3743 29.0184 16.9613 29.8341C15.7222 30.5495 15.0116 31.4423 15.0116 32.2837C15.0116 33.1075 15.7005 33.6781 16.2782 34.0117C18.4659 35.2747 22.4753 35.0942 25.0333 33.6173C26.2725 32.9019 26.983 32.0091 26.983 31.1677C26.9831 30.3439 26.2942 29.7733 25.7165 29.4397C24.7372 28.8742 23.3925 28.5981 21.9767 28.5981Z" fill="url(#paint2_linear_0_2501)"/>
<path d="M31.4337 8.12386C31.2607 5.21946 30.1792 3.1576 28.5631 2.20555L28.5634 2.2044L27.5253 1.60508C27.3281 1.49179 24.525 -0.0905074 21.9612 0.00407459C20.4567 0.0596097 18.9438 0.818891 17.6832 1.69457C15.6427 3.11199 14.0102 5.03702 12.8841 7.2517C11.4294 10.1126 10.5352 13.3726 10.5352 16.3951C10.5352 18.8031 11.1045 20.7038 12.0708 21.9758L15.6965 27.3503C16.3755 28.3568 17.2744 29.1957 18.3254 29.8036L20.9728 31.3348C21.0612 31.3997 21.1536 31.4531 21.25 31.4951L21.2531 31.4969L21.2532 31.4964C22.5537 32.0604 24.523 30.5922 25.4844 28.0563L29.9236 16.3486C31.0075 13.6706 31.5918 10.7784 31.4337 8.12386Z" fill="url(#paint3_linear_0_2501)"/>
<path d="M29.9243 16.3483C31.0081 13.6702 31.5925 10.778 31.4343 8.12351C31.1156 2.77204 27.7167 0.272297 23.5607 2.328C18.6576 4.75334 14.5859 12.2864 14.5859 18.7366C14.5859 21.1446 15.1552 23.0453 16.1216 24.3173L20.5607 30.8991C21.7165 32.6128 24.3294 31.1042 25.4852 28.056L29.9243 16.3483Z" fill="url(#paint4_linear_0_2501)"/>
<path d="M28.4207 10.7538C28.4207 14.7287 26.004 19.3463 23.0229 21.0675C20.0417 22.7886 17.625 20.9616 17.625 16.9867C17.625 13.0118 20.0417 8.39429 23.0229 6.67311C26.004 4.95201 28.4207 6.77901 28.4207 10.7538Z" fill="url(#paint5_linear_0_2501)"/>
<defs>
<linearGradient id="paint0_linear_0_2501" x1="8.58918" y1="24.2506" x2="35.5599" y2="40.4981" gradientUnits="userSpaceOnUse">
<stop stop-color="#D7D1EB"/>
<stop offset="1" stop-color="#F2EFFA"/>
</linearGradient>
<linearGradient id="paint1_linear_0_2501" x1="8.59043" y1="24.2498" x2="35.5611" y2="40.4973" gradientUnits="userSpaceOnUse">
<stop stop-color="#D7D1EB"/>
<stop offset="1" stop-color="#F2EFFA"/>
</linearGradient>
<linearGradient id="paint2_linear_0_2501" x1="8.58787" y1="24.25" x2="35.5584" y2="40.4973" gradientUnits="userSpaceOnUse">
<stop stop-color="#D7D1EB"/>
<stop offset="1" stop-color="#F2EFFA"/>
</linearGradient>
<linearGradient id="paint3_linear_0_2501" x1="15.8275" y1="23.5508" x2="27.8962" y2="2.6472" gradientUnits="userSpaceOnUse">
<stop stop-color="#5C5DBC"/>
<stop offset="0.7602" stop-color="#797AC8"/>
<stop offset="0.8419" stop-color="#6E6FC4"/>
<stop offset="0.9166" stop-color="#5C5DBD"/>
<stop offset="0.9859" stop-color="#4D4EB7"/>
<stop offset="1" stop-color="#4546AB"/>
</linearGradient>
<linearGradient id="paint4_linear_0_2501" x1="25.5935" y1="3.9364" x2="20.3071" y2="41.2499" gradientUnits="userSpaceOnUse">
<stop stop-color="#5C5DBC"/>
<stop offset="0.7602" stop-color="#797AC8"/>
<stop offset="0.8419" stop-color="#6E6FC4"/>
<stop offset="0.9166" stop-color="#5C5DBD"/>
<stop offset="0.9859" stop-color="#4D4EB7"/>
<stop offset="1" stop-color="#4546AB"/>
</linearGradient>
<linearGradient id="paint5_linear_0_2501" x1="23.0228" y1="30.7655" x2="23.0228" y2="11.4432" gradientUnits="userSpaceOnUse">
<stop stop-color="#D7D1EB"/>
<stop offset="1" stop-color="#F2EFFA"/>
</linearGradient>
</defs>
</svg>
