<svg width="178" height="104" viewBox="0 0 178 104" fill="none" xmlns="http://www.w3.org/2000/svg">
<rect width="178" height="104" fill="white"/>
<path d="M85.375 90.1309V79.3202H87.5072V83.3211H89.9214V79.3202H92.0748V90.1309H89.9214V85.426H87.5072V90.1309H85.375Z" fill="#6D6E70"/>
<path d="M93.7578 90.1309V79.3202H98.3054V81.3191H95.8488V83.5039H98.0783V85.4872H95.8488V88.0209H98.3054V90.1309H93.7578Z" fill="#6A757C"/>
<path d="M101.736 86.5552H103.171C103.024 85.7967 102.888 85.0089 102.773 84.1788C102.65 83.3535 102.55 82.4842 102.465 81.5637C102.351 82.373 102.237 83.1947 102.117 84.0251C101.994 84.8591 101.869 85.701 101.736 86.5552ZM98.8555 90.1309L101.374 79.3202H103.63L106.029 90.1309H103.877L103.516 88.2311H101.343L101.014 90.1309H98.8555Z" fill="#6A757C"/>
<path d="M108.907 84.0079C108.931 84.0079 108.969 84.0111 109.029 84.0147C109.085 84.0183 109.126 84.0215 109.147 84.0215C109.615 84.0215 109.972 83.8919 110.21 83.6285C110.445 83.3675 110.563 82.9812 110.563 82.4738C110.563 81.9561 110.455 81.5753 110.24 81.3428C110.02 81.1056 109.671 80.9855 109.195 80.9855C109.121 80.9855 109.063 80.9891 109.024 80.9891C108.986 80.9929 108.947 80.9962 108.911 80.9997L108.907 84.0079ZM106.816 90.1309V79.3202H109.06C110.295 79.3202 111.189 79.5611 111.743 80.0448C112.3 80.5282 112.579 81.3018 112.579 82.3593C112.579 83.135 112.435 83.7519 112.15 84.2145C111.868 84.6866 111.439 85.0089 110.869 85.1965L112.941 90.1309H110.671L108.907 85.6561V90.1309H106.816Z" fill="#6A757C"/>
<path d="M113.867 90.1309H116.064V79.3211H113.867V90.1309Z" fill="#6A757C"/>
<path d="M117.871 90.1309V79.3202H120.055L122.239 85.1352C122.302 85.327 122.396 85.6136 122.509 86.0034C122.624 86.3878 122.757 86.8436 122.907 87.3647C122.793 86.6012 122.711 85.9008 122.653 85.2637C122.603 84.6263 122.576 84.0284 122.576 83.4748V79.3202H124.571V90.1309H122.576L120.205 84.0813C120.164 83.9927 120.061 83.6255 119.892 82.9747C119.815 82.6804 119.752 82.4503 119.709 82.2808C119.757 82.7042 119.793 83.1748 119.819 83.6993C119.846 84.2249 119.856 84.8522 119.856 85.583V90.1309H117.871Z" fill="#6A757C"/>
<path d="M129.33 84.0224H133.348C133.348 84.076 133.351 84.1631 133.358 84.2704C133.364 84.3798 133.365 84.4633 133.365 84.5166C133.365 86.329 133.034 87.7314 132.371 88.7428C131.707 89.7572 130.791 90.2617 129.62 90.2617C128.481 90.2617 127.576 89.7673 126.91 88.7802C126.241 87.7929 125.91 86.4416 125.91 84.733C125.91 83.011 126.255 81.653 126.943 80.6658C127.633 79.6749 128.582 79.1778 129.773 79.1778C130.582 79.1778 131.271 79.4184 131.835 79.892C132.403 80.3635 132.814 81.0571 133.078 81.9571L131.137 82.854C131.052 82.3148 130.895 81.9113 130.658 81.6446C130.425 81.3797 130.118 81.2465 129.73 81.2465C129.15 81.2465 128.73 81.5233 128.46 82.0867C128.192 82.6471 128.058 83.5289 128.058 84.733C128.058 85.8851 128.201 86.7526 128.483 87.3454C128.768 87.9394 129.182 88.232 129.73 88.232C130.208 88.232 130.582 88.0322 130.849 87.6317C131.121 87.2289 131.257 86.6655 131.257 85.9306H129.33L129.33 84.0224Z" fill="#6A757C"/>
<path d="M143.603 90.0099C143.399 90.094 143.192 90.1573 142.98 90.2014C142.771 90.2406 142.56 90.2617 142.348 90.2617C140.968 90.2617 139.852 89.7607 138.99 88.7567C138.126 87.759 137.699 86.4449 137.699 84.824C137.699 83.1359 138.118 81.7745 138.959 80.7324C139.801 79.6984 140.901 79.1778 142.257 79.1778C142.51 79.1778 142.746 79.2019 142.968 79.2442C143.192 79.2852 143.404 79.3518 143.603 79.4377V81.4603C143.399 81.3765 143.2 81.3131 143.002 81.2771C142.807 81.2358 142.62 81.2177 142.428 81.2177C141.709 81.2177 141.125 81.5331 140.674 82.1708C140.227 82.8076 140.001 83.652 140.001 84.7042C140.001 85.7141 140.231 86.5359 140.692 87.1623C141.152 87.786 141.746 88.0988 142.473 88.0988C142.654 88.0988 142.843 88.0801 143.033 88.0322C143.222 87.9894 143.416 87.9296 143.603 87.8419V90.0099Z" fill="#6A757C"/>
<path d="M146.917 86.5552H148.351C148.205 85.7967 148.07 85.0089 147.95 84.1788C147.833 83.3535 147.729 82.4842 147.641 81.5637C147.53 82.373 147.419 83.1947 147.296 84.0251C147.179 84.8591 147.049 85.701 146.917 86.5552ZM144.035 90.1309L146.553 79.3202H148.813L151.21 90.1309H149.052L148.692 88.2311H146.522L146.188 90.1309H144.035Z" fill="#6A757C"/>
<path d="M154.084 84.0079C154.111 84.0079 154.15 84.0111 154.209 84.0147C154.261 84.0183 154.305 84.0215 154.328 84.0215C154.798 84.0215 155.151 83.8919 155.389 83.6285C155.624 83.3675 155.741 82.9812 155.741 82.4738C155.741 81.9561 155.633 81.5753 155.416 81.3428C155.198 81.1056 154.854 80.9855 154.371 80.9855C154.297 80.9855 154.245 80.9891 154.204 80.9891C154.161 80.9929 154.125 80.9962 154.092 80.9997L154.084 84.0079ZM152 90.1309V79.3202H154.239C155.473 79.3202 156.368 79.5611 156.925 80.0448C157.48 80.5282 157.757 81.3018 157.757 82.3593C157.757 83.135 157.615 83.7519 157.332 84.2145C157.046 84.6866 156.619 85.0089 156.048 85.1965L158.121 90.1309H155.849L154.084 85.6561V90.1309H152Z" fill="#6A757C"/>
<path d="M158.953 90.1309V79.3202H163.501V81.3191H161.043V83.5039H163.27V85.4872H161.043V88.0209H163.501V90.1309H158.953Z" fill="#6A757C"/>
<path d="M22.5727 26.2119V31.2363C19.8731 29.586 17.3734 28.7577 15.072 28.7577C13.3723 28.7577 12.5229 29.3383 12.5229 30.4999C12.5229 30.7987 12.7021 31.0963 13.0601 31.3915C13.416 31.6844 14.7886 32.3039 17.1692 33.2541C19.5521 34.2002 21.2313 35.2969 22.2141 36.5355C23.2021 37.7794 23.6926 39.1357 23.6926 40.6133C23.6926 42.949 22.8985 44.7578 21.3103 46.0255C19.7215 47.3 17.4596 47.9336 14.5237 47.9336C11.5052 47.9336 8.82262 47.3869 6.4724 46.2886V41.3141C9.36341 42.5845 11.7852 43.2154 13.7377 43.2154C16.0231 43.2154 17.1692 42.6615 17.1692 41.5546C17.1692 41.1277 16.956 40.7227 16.5303 40.3437C16.1081 39.9626 14.6938 39.2978 12.283 38.3568C9.87236 37.4137 8.22207 36.3752 7.32983 35.2479C6.44207 34.1187 6 32.8626 6 31.4822C6 29.4287 6.8476 27.7632 8.55589 26.4753C10.2607 25.1835 12.5163 24.5431 15.311 24.5431C17.9936 24.5431 20.4139 25.1017 22.5727 26.2119Z" fill="#1F4292"/>
<path d="M75.3816 47.5516V44.3402C73.3037 46.7677 70.8801 47.9824 68.1211 47.9824C65.6764 47.9824 63.688 47.229 62.1625 45.7208C60.6403 44.212 59.875 42.1246 59.875 39.4581V25.0706H66.9527V38.964C66.9527 41.8172 68.133 43.2452 70.5025 43.2452C71.8332 43.2452 72.9764 42.724 73.9188 41.6867C74.8625 40.6485 75.3352 39.885 75.3352 39.3879V25.0706H82.4589V47.5516H75.3816Z" fill="#1F4292"/>
<path d="M92.9512 25.0717V28.2609C95.0338 25.8197 97.4664 24.5966 100.263 24.5966C102.596 24.5966 104.549 25.3413 106.109 26.8391C107.676 28.331 108.456 30.4699 108.456 33.2491V47.5527H101.38V33.8437C101.38 30.8367 100.219 29.335 97.8799 29.335C96.2162 29.335 94.5712 30.5718 92.9512 33.0532V47.5527H85.875V25.0717H92.9512Z" fill="#1F4292"/>
<path d="M127.433 41.387V30.6426C126.144 29.7683 124.826 29.3339 123.477 29.3339C121.698 29.3339 120.314 29.9523 119.32 31.193C118.328 32.4316 117.83 34.1687 117.83 36.4086C117.83 38.4737 118.322 40.1291 119.31 41.3763C120.294 42.6214 121.602 43.2452 123.238 43.2452C124.685 43.2452 126.082 42.6247 127.433 41.387ZM134.502 14.2823V47.5516H127.433V45.7479C125.619 47.2362 123.543 47.9824 121.192 47.9824C118.186 47.9824 115.683 46.8717 113.676 44.6461C111.666 42.4198 110.664 39.6323 110.664 36.2781C110.664 32.8451 111.682 30.0386 113.724 27.8614C115.762 25.6836 118.38 24.5955 121.572 24.5955C123.555 24.5955 125.506 25.0706 127.433 26.0219V14.2823H134.502Z" fill="#1F4292"/>
<path d="M153.332 26.2646V31.2867C150.633 29.6348 148.134 28.8095 145.83 28.8095C144.131 28.8095 143.282 29.389 143.282 30.5487C143.282 30.8529 143.463 31.1484 143.82 31.4421C144.177 31.7344 145.547 32.3582 147.927 33.3059C150.31 34.2529 151.993 35.3458 152.975 36.5876C153.962 37.8297 154.454 39.1845 154.454 40.6654C154.454 43.0005 153.657 44.8066 152.071 46.0779C150.482 47.3483 148.221 47.9824 145.28 47.9824C142.269 47.9824 139.585 47.4389 137.234 46.3374V41.3623C140.123 42.6336 142.542 43.2722 144.5 43.2722C146.784 43.2722 147.925 42.7142 147.925 41.607C147.925 41.1801 147.715 40.7763 147.292 40.3952C146.866 40.0149 145.453 39.3519 143.04 38.4089C140.629 37.4643 138.977 36.4324 138.092 35.2997C137.202 34.1723 136.758 32.915 136.758 31.5328C136.758 29.4811 137.608 27.8138 139.317 26.5253C141.023 25.2377 143.275 24.5955 146.07 24.5955C148.75 24.5955 151.178 25.1505 153.332 26.2646Z" fill="#1F4292"/>
<path d="M66.6139 56.3147C65.2177 56.3147 64.0478 56.7985 63.0979 57.757C62.1516 58.7187 61.6804 59.8883 61.6804 61.2741C61.6804 62.5944 62.1635 63.7426 63.1422 64.7133C64.1198 65.6814 65.2807 66.1648 66.6139 66.1648C67.9562 66.1648 69.1079 65.6578 70.0629 64.6396C71.0193 63.6228 71.4977 62.405 71.4977 60.9836C71.4977 59.6993 71.035 58.5972 70.1089 57.6868C69.1799 56.7726 68.0162 56.3147 66.6139 56.3147ZM67.3262 86.9315C69.1486 86.9315 70.6266 86.595 71.7593 85.924C72.8897 85.2542 73.4572 84.4461 73.4572 83.5045C73.4572 81.5057 71.2384 80.5086 66.8033 80.5086C64.7857 80.5086 63.2052 80.802 62.0508 81.3865C60.8972 81.974 60.3235 82.7583 60.3235 83.7352C60.3235 85.8672 62.657 86.9315 67.3262 86.9315ZM82.0107 51.2463V56.9795H78.1264C79.0263 58.5172 79.4756 60.0221 79.4756 61.5027C79.4756 63.613 78.6898 65.5606 77.1144 67.349C75.5413 69.131 73.2128 70.1912 70.1292 70.5301C67.0494 70.8663 65.3015 71.1827 64.8901 71.4797C64.4783 71.7767 64.2717 72.1647 64.2717 72.6481C64.2717 73.1247 64.5395 73.5156 65.0794 73.8132C65.6128 74.1123 67.7308 74.4197 71.4275 74.734C75.126 75.05 77.6956 76.0202 79.1462 77.6434C80.5949 79.2643 81.3186 81.0086 81.3186 82.8713C81.3186 85.847 80.0853 88.1122 77.6186 89.6629C75.1521 91.2211 71.5827 92 66.9213 92C62.1566 92 58.545 91.2791 56.0886 89.8407C53.6326 88.3988 52.4023 86.491 52.4023 84.1092C52.4023 80.8092 54.8248 78.5044 59.6629 77.199C57.4744 76.5446 56.3776 75.3649 56.3776 73.6563C56.3776 71.6575 58.0292 70.2854 61.3316 69.5392C59.1226 69.1512 57.3002 68.1894 55.8633 66.6556C54.4199 65.1215 53.6974 63.2847 53.6974 61.1561C53.6974 58.5478 54.7391 56.2416 56.8117 54.2425C58.8848 52.2444 61.8983 51.2463 65.8554 51.2463H82.0107Z" fill="#1F4292"/>
<path d="M96.5853 70.7537C100.11 70.7537 101.871 68.094 101.871 62.7722C101.871 57.6871 100.11 55.1415 96.5853 55.1415C94.8975 55.1415 93.5793 55.8146 92.6273 57.1555C91.6774 58.4984 91.1991 60.4241 91.1991 62.9211C91.1991 68.1439 92.9966 70.7537 96.5853 70.7537ZM96.5853 50.7527C100.259 50.7527 103.373 51.8275 105.926 53.9835C108.484 56.1357 109.762 59.1326 109.762 62.9755C109.762 66.8334 108.462 69.8225 105.864 71.9414C103.267 74.0594 100.171 75.1172 96.5853 75.1172C92.699 75.1172 89.5166 73.9898 87.0445 71.7279C84.5725 69.4678 83.3359 66.5325 83.3359 62.9211C83.3359 59.2446 84.5968 56.2998 87.1162 54.084C89.6409 51.8614 92.7944 50.7527 96.5853 50.7527Z" fill="#1F4292"/>
<path d="M124.237 70.7537C127.761 70.7537 129.524 68.094 129.524 62.7722C129.524 57.6871 127.761 55.1415 124.237 55.1415C122.551 55.1415 121.232 55.8146 120.284 57.1555C119.327 58.4984 118.854 60.4241 118.854 62.9211C118.854 68.1439 120.649 70.7537 124.237 70.7537ZM124.237 50.7527C127.911 50.7527 131.024 51.8275 133.581 53.9835C136.135 56.1357 137.413 59.1326 137.413 62.9755C137.413 66.8334 136.118 69.8225 133.52 71.9414C130.92 74.0594 127.826 75.1172 124.237 75.1172C120.352 75.1172 117.17 73.9898 114.699 71.7279C112.224 69.4678 110.988 66.5325 110.988 62.9211C110.988 59.2446 112.251 56.2998 114.772 54.084C117.294 51.8614 120.451 50.7527 124.237 50.7527Z" fill="#1F4292"/>
<path d="M156.016 68.2818V57.09C154.677 56.1797 153.3 55.7254 151.894 55.7254C150.04 55.7254 148.598 56.3727 147.565 57.6642C146.532 58.9488 146.012 60.7633 146.012 63.0968C146.012 65.2439 146.527 66.9728 147.553 68.2717C148.578 69.5697 149.943 70.2169 151.646 70.2169C153.151 70.2169 154.61 69.5697 156.016 68.2818ZM163.384 25.0985V74.7101H156.016V72.8258C154.125 74.3771 151.962 75.1543 149.511 75.1543C146.385 75.1543 143.778 73.9993 141.683 71.6776C139.59 69.3631 138.547 66.4557 138.547 62.9582C138.547 59.3861 139.608 56.4603 141.735 54.1916C143.86 51.9226 146.581 50.7898 149.91 50.7898C151.978 50.7898 154.012 51.2836 156.016 52.2796V25.0985H163.384Z" fill="#1F4292"/>
<path d="M166.988 18.8027V15.5733H168.42C168.707 15.5733 168.926 15.6029 169.076 15.6606C169.226 15.7184 169.345 15.8207 169.434 15.9672C169.524 16.114 169.568 16.2762 169.568 16.4538C169.568 16.6831 169.494 16.8764 169.346 17.0331C169.198 17.1904 168.969 17.2895 168.659 17.3325C168.773 17.3866 168.859 17.4408 168.917 17.4934C169.042 17.6077 169.16 17.7511 169.271 17.9234L169.829 18.8027H169.295L168.868 18.1309C168.744 17.9361 168.641 17.788 168.561 17.6851C168.48 17.5822 168.408 17.5105 168.344 17.4693C168.281 17.4288 168.215 17.4 168.149 17.3838C168.101 17.3736 168.022 17.3684 167.912 17.3684H167.417V18.8027H166.988ZM167.417 16.9985H168.334C168.529 16.9985 168.681 16.9784 168.791 16.9378C168.901 16.8979 168.984 16.8334 169.041 16.7438C169.098 16.6554 169.126 16.5591 169.126 16.4546C169.126 16.3017 169.071 16.1757 168.961 16.0773C168.85 15.9784 168.676 15.9297 168.438 15.9297H167.417V16.9985Z" fill="#020A08"/>
<path d="M25.6505 14.2325C24.6812 14.6136 23.8084 15.0831 22.9973 15.5769C25.9763 22.6492 27.7524 31.5122 27.7524 41.1407C27.7524 52.1487 25.4352 62.1543 21.6484 69.625C21.6898 72.6316 22.6697 77.2173 27.9044 79.0174C36.2908 81.9016 42.8636 72.6417 44.3679 67.5943C45.9603 62.242 47.8396 57.0638 53.06 47.7878C57.2793 40.2964 57.4502 33.1331 57.4502 33.1331C58.1204 17.7122 43.5444 7.19255 25.6505 14.2325Z" fill="#6D6E70"/>
<path d="M26.6916 62.4863L32.3213 49.6701C26.9686 47.3639 23.4414 42.0597 23.4414 36.1519C23.4414 28.0286 30.049 21.4192 38.1738 21.4192C46.2982 21.4192 52.9098 28.0286 52.9098 36.1519C52.9098 39.5825 51.7036 42.9188 49.5172 45.5461L49.4848 45.5821L47.3112 47.7144L26.6916 62.4863Z" fill="white"/>
<path d="M50.2873 36.1515C50.2873 29.4639 44.8617 24.0377 38.1738 24.0377C31.4839 24.0377 26.0625 29.4639 26.0625 36.1515C26.0625 42.1258 30.3934 47.0795 36.0876 48.0704L31.7345 56.4688L45.6647 45.6786L45.6475 45.6685C48.4695 43.4497 50.2873 40.0161 50.2873 36.1515Z" fill="#00A94F"/>
<path d="M44.969 36.3656C44.969 40.1378 41.9077 43.1992 38.1344 43.1992C34.3579 43.1992 31.3008 40.1378 31.3008 36.3656C31.3008 32.5918 34.3579 29.531 38.1344 29.531C41.9077 29.531 44.969 32.5918 44.969 36.3656Z" fill="white"/>
<path d="M168.212 14.1019C169.934 14.1019 171.33 15.4977 171.33 17.2199C171.33 18.942 169.934 20.3379 168.212 20.3379C166.49 20.3379 165.094 18.942 165.094 17.2199C165.094 15.4977 166.49 14.1019 168.212 14.1019Z" stroke="#231F20" stroke-width="0.378" stroke-miterlimit="2.61313"/>
</svg>
